<svg width="640" height="622" viewBox="0 0 640 622" fill="none" xmlns="http://www.w3.org/2000/svg">
<path d="M396.333 181.655L393.306 180.479L375.2 237.097L407.789 249.808C407.789 249.808 407.702 253.929 410.816 255.105" stroke="#EED563" stroke-opacity="0.4" stroke-width="3.00842" stroke-linecap="round" stroke-linejoin="round"/>
<path d="M410.614 255.009C413.728 256.217 415.938 252.891 415.938 252.891L447.711 265.242L465.826 208.613L462.799 207.448" stroke="#EED563" stroke-opacity="0.4" stroke-width="3.00842" stroke-linecap="round" stroke-linejoin="round"/>
<path d="M412.44 248.495C412.44 248.495 401.34 242.986 379.688 233.665C385.512 215.445 392.268 194.323 396.746 180.33C398.15 180.871 398.851 181.188 400.12 181.76" stroke="#EED563" stroke-opacity="0.4" stroke-width="3.00842" stroke-linecap="round" stroke-linejoin="round"/>
<path d="M412.383 248.474C412.383 248.474 424.751 252.096 446.154 259.522C451.987 241.302 458.743 220.18 463.222 206.177C461.905 205.668 460.637 205.213 459.378 204.81" stroke="#EED563" stroke-opacity="0.4" stroke-width="3.00842" stroke-linecap="round" stroke-linejoin="round"/>
<path d="M412.834 249.533C412.834 249.533 405.963 241.821 384.311 232.51C390.134 214.291 396.891 193.169 401.369 179.176C423.271 187.65 428.884 199.366 428.884 199.366L412.834 249.533Z" stroke="#EED563" stroke-opacity="0.4" stroke-width="3.00842" stroke-linecap="round" stroke-linejoin="round"/>
<path d="M412.834 249.533C412.834 249.533 421.82 247.986 443.222 255.412C449.056 237.213 455.812 216.028 460.31 202.067C439.916 194.143 428.903 199.366 428.903 199.366L412.834 249.533Z" stroke="#EED563" stroke-opacity="0.4" stroke-width="3.00842" stroke-linecap="round" stroke-linejoin="round"/>
<path d="M544.199 524.785L541.691 526.977L575.635 573.914L602.65 550.165C602.65 550.165 605.774 552.432 608.359 550.165" stroke="#EED563" stroke-opacity="0.4" stroke-width="3.00842" stroke-linecap="round" stroke-linejoin="round"/>
<path d="M608.205 550.313C610.79 548.046 609.426 544.222 609.426 544.222L635.768 521.098L601.804 474.173L599.296 476.376" stroke="#EED563" stroke-opacity="0.4" stroke-width="3.00842" stroke-linecap="round" stroke-linejoin="round"/>
<path d="M604.169 545.144C604.169 545.144 594.049 552.559 575.414 567.918L543.412 523.704C544.574 522.645 545.19 522.189 546.295 521.31" stroke="#EED563" stroke-opacity="0.4" stroke-width="3.00842" stroke-linecap="round" stroke-linejoin="round"/>
<path d="M604.111 545.186C604.111 545.186 613.452 535.547 630.511 519.478L598.518 475.264C597.432 476.217 596.404 477.16 595.433 478.113" stroke="#EED563" stroke-opacity="0.4" stroke-width="3.00842" stroke-linecap="round" stroke-linejoin="round"/>
<path d="M605.168 545.335C605.168 545.335 595.558 547.665 576.952 562.971L544.959 518.757C563.122 502.794 575.078 503.748 575.078 503.748L605.168 545.335Z" stroke="#EED563" stroke-opacity="0.4" stroke-width="3.00842" stroke-linecap="round" stroke-linejoin="round"/>
<path d="M605.168 545.335C605.168 545.335 608.743 536.108 625.802 520.039L593.799 475.825C576.894 490.655 575.078 503.748 575.078 503.748L605.168 545.335Z" stroke="#EED563" stroke-opacity="0.4" stroke-width="3.00842" stroke-linecap="round" stroke-linejoin="round"/>
<path d="M24.2743 464.279L21.0548 465.826L44.9848 526.098L79.7362 509.372C79.7362 509.372 82.456 512.741 85.7716 511.141" stroke="#EED563" stroke-opacity="0.4" stroke-width="3.29443" stroke-linecap="round" stroke-linejoin="round"/>
<path d="M85.5024 511.247C88.818 509.648 88.3856 505.188 88.3856 505.188L122.214 488.875L98.2939 428.592L95.0744 430.149" stroke="#EED563" stroke-opacity="0.4" stroke-width="3.29443" stroke-linecap="round" stroke-linejoin="round"/>
<path d="M82.5521 504.521C82.5521 504.521 69.924 509.266 46.2631 519.679L23.7266 462.838C25.2162 462.118 25.9946 461.779 27.3978 461.218" stroke="#EED563" stroke-opacity="0.4" stroke-width="3.29443" stroke-linecap="round" stroke-linejoin="round"/>
<path d="M82.4849 504.553C82.4849 504.553 94.8535 497.254 117.082 485.549L94.4979 428.762C93.0948 429.429 91.7686 430.118 90.5 430.817" stroke="#EED563" stroke-opacity="0.4" stroke-width="3.29443" stroke-linecap="round" stroke-linejoin="round"/>
<path d="M83.5805 505.029C83.5805 505.029 72.836 504.521 49.1847 514.923C41.4963 495.528 32.549 473.029 26.6385 458.135C49.9631 446.886 62.3798 451.621 62.3798 451.621L83.5805 505.029Z" stroke="#EED563" stroke-opacity="0.4" stroke-width="3.29443" stroke-linecap="round" stroke-linejoin="round"/>
<path d="M83.5803 505.029C83.5803 505.029 89.7214 496.375 111.912 484.67L89.3466 427.883C67.6366 438.359 62.3605 451.621 62.3605 451.621L83.5803 505.029Z" stroke="#EED563" stroke-opacity="0.4" stroke-width="3.29443" stroke-linecap="round" stroke-linejoin="round"/>
<path d="M601.007 100.567C595.433 128.765 580.123 149.018 566.813 145.83C553.502 142.642 547.236 117.23 552.811 88.9895C558.385 60.7493 573.713 40.4854 587.005 43.6844C600.296 46.8834 606.581 72.3271 601.007 100.567Z" stroke="#EED563" stroke-opacity="0.4" stroke-width="3.17791" stroke-linecap="round" stroke-linejoin="round"/>
<path d="M583.631 121.107C558.644 129.581 535.31 124.708 531.427 110.26C527.545 95.8112 544.632 77.2633 569.581 68.7891C594.529 60.315 617.921 65.177 621.765 79.6255C625.61 94.074 608.58 112.654 583.631 121.107Z" stroke="#EED563" stroke-opacity="0.4" stroke-width="3.17791" stroke-linecap="round" stroke-linejoin="round"/>
<path d="M560.105 115.164C540.884 95.5888 532.638 70.6747 541.759 59.4994C550.879 48.324 573.857 55.1457 593.107 74.7211C612.357 94.2965 620.564 119.211 611.454 130.386C602.343 141.561 579.345 134.739 560.105 115.164Z" stroke="#EED563" stroke-opacity="0.4" stroke-width="3.17791" stroke-linecap="round" stroke-linejoin="round"/>
<path d="M587.956 97.3895C587.458 99.9068 586.294 102.205 584.612 103.993C582.929 105.782 580.803 106.98 578.503 107.437C576.203 107.894 573.831 107.589 571.688 106.561C569.545 105.532 567.726 103.827 566.462 101.659C565.199 99.4922 564.546 96.9605 564.587 94.3846C564.629 91.8086 565.362 89.304 566.694 87.1872C568.027 85.0705 569.899 83.4367 572.074 82.4924C574.248 81.548 576.628 81.3355 578.913 81.8818C580.431 82.2448 581.869 82.934 583.145 83.9099C584.421 84.8859 585.51 86.1296 586.35 87.5698C587.19 89.0101 587.764 90.6186 588.04 92.3035C588.315 93.9885 588.287 95.7167 587.956 97.3895Z" fill="#EED563" fill-opacity="0.4"/>
<path d="M189.689 240.179C182.078 238.061 186.672 217.617 179.051 215.541C171.429 213.465 166.845 233.951 159.224 231.875C151.603 229.799 156.197 209.312 148.576 207.236C140.955 205.16 136.361 225.646 128.749 223.57C121.138 221.494 125.722 201.008 118.101 198.931" stroke="#EED563" stroke-opacity="0.4" stroke-width="3.00842" stroke-linecap="round" stroke-linejoin="round"/>
<path d="M113.911 219.524C121.532 221.642 126.126 201.124 133.737 203.2C141.349 205.276 136.765 225.752 144.386 227.828C152.007 229.904 156.591 209.429 164.212 211.505C171.833 213.581 167.239 234.036 174.88 236.154C182.52 238.273 187.095 217.755 194.716 219.831" stroke="#EED563" stroke-opacity="0.4" stroke-width="3.00842" stroke-linecap="round" stroke-linejoin="round"/>
<path d="M580.248 288.715C580.248 290.211 579.846 291.673 579.092 292.917C578.338 294.161 577.266 295.13 576.012 295.703C574.759 296.275 573.379 296.425 572.048 296.133C570.717 295.841 569.494 295.121 568.534 294.063C567.575 293.005 566.921 291.658 566.657 290.191C566.392 288.724 566.528 287.203 567.047 285.821C567.566 284.439 568.446 283.258 569.574 282.427C570.703 281.596 572.029 281.152 573.387 281.152C575.206 281.152 576.952 281.949 578.239 283.367C579.525 284.786 580.248 286.709 580.248 288.715Z" stroke="#EED563" stroke-opacity="0.4" stroke-width="3.00842" stroke-linecap="round" stroke-linejoin="round"/>
<path d="M597.086 310.123C597.086 311.619 596.683 313.081 595.929 314.325C595.175 315.569 594.104 316.538 592.85 317.111C591.596 317.683 590.216 317.833 588.885 317.541C587.554 317.249 586.332 316.529 585.372 315.471C584.412 314.413 583.759 313.066 583.494 311.599C583.229 310.132 583.365 308.611 583.884 307.229C584.404 305.847 585.283 304.666 586.412 303.835C587.54 303.004 588.867 302.56 590.224 302.56C592.044 302.56 593.789 303.357 595.076 304.775C596.363 306.194 597.086 308.117 597.086 310.123V310.123Z" stroke="#EED563" stroke-opacity="0.4" stroke-width="3.00842" stroke-linecap="round" stroke-linejoin="round"/>
<path d="M625.61 277.286C625.61 278.782 625.207 280.244 624.453 281.488C623.699 282.731 622.627 283.701 621.374 284.273C620.12 284.846 618.74 284.995 617.409 284.704C616.078 284.412 614.855 283.691 613.896 282.634C612.936 281.576 612.282 280.228 612.018 278.761C611.753 277.294 611.889 275.773 612.408 274.391C612.927 273.009 613.807 271.828 614.935 270.997C616.064 270.166 617.391 269.723 618.748 269.723C620.568 269.723 622.313 270.519 623.6 271.938C624.887 273.356 625.61 275.28 625.61 277.286Z" stroke="#EED563" stroke-opacity="0.4" stroke-width="3.00842" stroke-linecap="round" stroke-linejoin="round"/>
<path d="M554.012 297.327L566.525 291.978" stroke="#EED563" stroke-opacity="0.4" stroke-width="3.00842" stroke-linecap="round" stroke-linejoin="round"/>
<path d="M578.24 294.065L586.005 304.17" stroke="#EED563" stroke-opacity="0.4" stroke-width="3.00842" stroke-linecap="round" stroke-linejoin="round"/>
<path d="M595.442 303.407L615.99 284.213" stroke="#EED563" stroke-opacity="0.4" stroke-width="3.00842" stroke-linecap="round" stroke-linejoin="round"/>
<path d="M624.206 281.83L637.805 292.582" stroke="#EED563" stroke-opacity="0.4" stroke-width="3.00842" stroke-linecap="round" stroke-linejoin="round"/>
<path d="M580.248 288.715C580.248 290.211 579.846 291.673 579.092 292.917C578.338 294.161 577.266 295.13 576.012 295.703C574.759 296.275 573.379 296.425 572.048 296.133C570.717 295.841 569.494 295.121 568.534 294.063C567.575 293.005 566.921 291.658 566.657 290.191C566.392 288.724 566.528 287.203 567.047 285.821C567.566 284.439 568.446 283.258 569.574 282.427C570.703 281.596 572.029 281.152 573.387 281.152C575.206 281.152 576.952 281.949 578.239 283.367C579.525 284.786 580.248 286.709 580.248 288.715Z" stroke="#EED563" stroke-opacity="0.4" stroke-width="3.00842" stroke-linecap="round" stroke-linejoin="round"/>
<path d="M597.086 310.123C597.086 311.619 596.683 313.081 595.929 314.325C595.175 315.569 594.104 316.538 592.85 317.111C591.596 317.683 590.216 317.833 588.885 317.541C587.554 317.249 586.332 316.529 585.372 315.471C584.412 314.413 583.759 313.066 583.494 311.599C583.229 310.132 583.365 308.611 583.884 307.229C584.404 305.847 585.283 304.666 586.412 303.835C587.54 303.004 588.867 302.56 590.224 302.56C592.044 302.56 593.789 303.357 595.076 304.775C596.363 306.194 597.086 308.117 597.086 310.123V310.123Z" stroke="#EED563" stroke-opacity="0.4" stroke-width="3.00842" stroke-linecap="round" stroke-linejoin="round"/>
<path d="M625.61 277.286C625.61 278.782 625.207 280.244 624.453 281.488C623.699 282.731 622.627 283.701 621.374 284.273C620.12 284.846 618.74 284.995 617.409 284.704C616.078 284.412 614.855 283.691 613.896 282.634C612.936 281.576 612.282 280.228 612.018 278.761C611.753 277.294 611.889 275.773 612.408 274.391C612.927 273.009 613.807 271.828 614.935 270.997C616.064 270.166 617.391 269.723 618.748 269.723C620.568 269.723 622.313 270.519 623.6 271.938C624.887 273.356 625.61 275.28 625.61 277.286Z" stroke="#EED563" stroke-opacity="0.4" stroke-width="3.00842" stroke-linecap="round" stroke-linejoin="round"/>
<path d="M554.012 297.327L566.525 291.978" stroke="#EED563" stroke-opacity="0.4" stroke-width="3.00842" stroke-linecap="round" stroke-linejoin="round"/>
<path d="M578.24 294.065L586.005 304.17" stroke="#EED563" stroke-opacity="0.4" stroke-width="3.00842" stroke-linecap="round" stroke-linejoin="round"/>
<path d="M595.442 303.407L615.99 284.213" stroke="#EED563" stroke-opacity="0.4" stroke-width="3.00842" stroke-linecap="round" stroke-linejoin="round"/>
<path d="M624.206 281.83L637.805 292.582" stroke="#EED563" stroke-opacity="0.4" stroke-width="3.00842" stroke-linecap="round" stroke-linejoin="round"/>
<path d="M198.454 323.714H186.499V373.171H198.454V323.714Z" stroke="#EED563" stroke-opacity="0.4" stroke-width="3.3474" stroke-linecap="round" stroke-linejoin="round"/>
<path d="M217.896 347.071H204.441V373.171H217.896V347.071Z" stroke="#EED563" stroke-opacity="0.4" stroke-width="3.3474" stroke-linecap="round" stroke-linejoin="round"/>
<path d="M235.829 334.709H223.874V373.182H235.829V334.709Z" stroke="#EED563" stroke-opacity="0.4" stroke-width="3.3474" stroke-linecap="round" stroke-linejoin="round"/>
<path d="M176.042 373.171H256.77" stroke="#EED563" stroke-opacity="0.4" stroke-width="3.3474" stroke-linecap="round" stroke-linejoin="round"/>
<path d="M176.042 373.171V300.357" stroke="#EED563" stroke-opacity="0.4" stroke-width="3.3474" stroke-linecap="round" stroke-linejoin="round"/>
<path d="M498.809 357.494L489.141 362.208L489.555 367.801L483.308 370.851L481.501 339.963L488.911 336.34L508.516 358.585L502.269 361.636L498.809 357.494ZM488.661 356.562L495.263 353.331L487.719 344.369L488.661 356.562Z" fill="#EED563" fill-opacity="0.4"/>
<path d="M231.014 115.217C232.305 115.139 233.596 115.355 234.808 115.851C236.02 116.346 237.126 117.111 238.059 118.098C239.711 120.327 240.614 123.117 240.614 125.995C240.614 128.874 239.711 131.663 238.059 133.892C236.101 135.751 233.603 136.774 231.019 136.774C228.435 136.774 225.937 135.751 223.979 133.892C222.327 131.663 221.424 128.874 221.424 125.995C221.424 123.117 222.327 120.327 223.979 118.098C224.91 117.112 226.015 116.348 227.225 115.852C228.435 115.356 229.725 115.14 231.014 115.217ZM231.014 119.677C230.478 119.66 229.947 119.804 229.478 120.093C229.01 120.383 228.62 120.806 228.352 121.318C227.641 122.746 227.308 124.364 227.391 125.99C227.308 127.626 227.641 129.254 228.352 130.693C228.628 131.2 229.018 131.619 229.485 131.91C229.951 132.202 230.478 132.355 231.014 132.355C231.55 132.355 232.077 132.202 232.544 131.91C233.01 131.619 233.401 131.2 233.676 130.693C234.378 129.251 234.71 127.625 234.637 125.99C234.715 124.365 234.382 122.748 233.676 121.318C233.41 120.807 233.022 120.384 232.555 120.095C232.088 119.806 231.559 119.661 231.024 119.677H231.014ZM235.964 156.296H230.62L253.061 115.217H258.404L235.964 156.296ZM258.02 134.739C259.31 134.662 260.601 134.876 261.814 135.367C263.027 135.859 264.136 136.619 265.074 137.599C265.959 138.655 266.642 139.895 267.083 141.247C267.523 142.599 267.713 144.035 267.64 145.47C267.711 146.912 267.52 148.356 267.08 149.716C266.639 151.076 265.957 152.326 265.074 153.393C263.115 155.266 260.608 156.297 258.015 156.297C255.421 156.297 252.915 155.266 250.956 153.393C250.067 152.329 249.381 151.08 248.937 149.72C248.493 148.359 248.3 146.914 248.371 145.47C248.301 144.036 248.494 142.6 248.938 141.25C249.382 139.9 250.068 138.662 250.956 137.61C251.894 136.627 253.005 135.866 254.219 135.372C255.434 134.878 256.727 134.663 258.02 134.739ZM258.02 139.188C257.485 139.173 256.957 139.316 256.491 139.603C256.024 139.89 255.636 140.311 255.367 140.82C254.756 142.283 254.44 143.875 254.44 145.486C254.44 147.097 254.756 148.688 255.367 150.152C255.636 150.663 256.025 151.085 256.494 151.372C256.963 151.66 257.493 151.801 258.029 151.783C258.564 151.808 259.094 151.669 259.561 151.381C260.027 151.093 260.412 150.667 260.672 150.152C261.283 148.688 261.599 147.097 261.599 145.486C261.599 143.875 261.283 142.283 260.672 140.82C260.413 140.306 260.03 139.881 259.565 139.593C259.1 139.305 258.572 139.165 258.039 139.188" fill="#EED563" fill-opacity="0.4"/>
<path d="M45.2731 299.806C45.0183 299.806 44.7738 299.694 44.5936 299.496C44.4134 299.297 44.3121 299.027 44.3121 298.747C44.3096 295.699 43.2102 292.778 41.2552 290.623C39.3003 288.468 36.6495 287.256 33.8848 287.253C33.6812 287.192 33.5015 287.059 33.3733 286.875C33.2452 286.69 33.1758 286.464 33.1758 286.231C33.1758 285.999 33.2452 285.773 33.3733 285.588C33.5015 285.403 33.6812 285.27 33.8848 285.209C37.1423 285.212 40.2658 286.639 42.5702 289.177C44.8745 291.714 46.1714 295.156 46.1765 298.747C46.177 299.017 46.0837 299.277 45.9157 299.474C45.7478 299.671 45.5179 299.79 45.2731 299.806Z" fill="#EED563" fill-opacity="0.4"/>
<path d="M37.4599 325.589L36.0568 325.324L38.8342 306.839L40.2373 307.104L37.4599 325.589Z" fill="#EED563" fill-opacity="0.4"/>
<path d="M30.3769 325.589L27.5995 307.104L29.0026 306.839L31.78 325.324L30.3769 325.589Z" fill="#EED563" fill-opacity="0.4"/>
<path d="M39.4396 309.445C38.8533 309.445 38.6035 308.82 38.4209 308.386C38.344 308.195 38.1806 307.793 38.0941 307.793C38.0076 307.793 37.8442 308.195 37.7674 308.386C37.5848 308.841 37.3253 309.445 36.7486 309.445C36.172 309.445 35.9125 308.82 35.7299 308.386C35.6531 308.195 35.4897 307.793 35.4032 307.793C35.3167 307.793 35.1533 308.195 35.0764 308.386C34.8938 308.841 34.6344 309.445 34.0577 309.445C33.4811 309.445 33.2216 308.82 33.0294 308.386C32.9621 308.195 32.7988 307.793 32.7123 307.793C32.6258 307.793 32.4624 308.195 32.3759 308.386C32.2029 308.841 31.9434 309.445 31.3572 309.445C30.7709 309.445 30.5307 308.82 30.3481 308.386C30.2616 308.195 30.1078 307.793 30.0117 307.793C29.9156 307.793 29.7619 308.195 29.685 308.386C29.5024 308.841 29.2525 309.445 28.6663 309.445V308.608C28.7528 308.608 28.9161 308.216 28.993 308.026C29.1756 307.56 29.4351 306.967 30.0117 306.967C30.5883 306.967 30.8478 307.581 31.0304 308.026C31.1169 308.216 31.2707 308.608 31.3572 308.608C31.4437 308.608 31.6167 308.216 31.6935 308.026C31.8761 307.57 32.126 306.967 32.7123 306.967C33.2985 306.967 33.5484 307.592 33.731 308.026C33.8079 308.216 33.9616 308.608 34.0577 308.608C34.1538 308.608 34.3076 308.216 34.3845 308.026C34.5671 307.57 34.8169 306.967 35.4032 306.967C35.9894 306.967 36.2393 307.592 36.4219 308.026C36.4988 308.216 36.6622 308.608 36.7486 308.608C36.8351 308.608 36.9985 308.216 37.0754 308.026C37.258 307.56 37.5079 306.967 38.0941 306.967C38.6803 306.967 38.9302 307.592 39.1128 308.026C39.1897 308.216 39.3435 308.608 39.4396 308.608V309.445Z" fill="#EED563" fill-opacity="0.4"/>
<path d="M33.9136 276.089C33.6587 276.089 33.4142 275.977 33.234 275.778C33.0538 275.58 32.9525 275.31 32.9525 275.029V264.31C33.0046 264.081 33.1246 263.877 33.2935 263.732C33.4624 263.587 33.6705 263.508 33.8847 263.508C34.099 263.508 34.307 263.587 34.4759 263.732C34.6448 263.877 34.7648 264.081 34.8169 264.31V275.072C34.8078 275.335 34.7102 275.584 34.5433 275.772C34.3763 275.96 34.1518 276.073 33.9136 276.089Z" fill="#EED563" fill-opacity="0.4"/>
<path d="M45.0618 279.383C44.8996 279.384 44.7402 279.336 44.6005 279.245C44.3924 279.104 44.2408 278.881 44.1766 278.622C44.1123 278.362 44.1402 278.085 44.2545 277.847L49.1366 268.526C49.2645 268.296 49.4668 268.129 49.7025 268.058C49.9381 267.987 50.1894 268.018 50.4052 268.144C50.6141 268.287 50.7654 268.513 50.828 268.775C50.8905 269.037 50.8596 269.315 50.7415 269.553L45.869 278.864C45.7857 279.019 45.6678 279.148 45.5265 279.239C45.3852 279.33 45.2253 279.379 45.0618 279.383Z" fill="#EED563" fill-opacity="0.4"/>
<path d="M53.2305 288.376C53.067 288.373 52.9071 288.323 52.7658 288.232C52.6245 288.141 52.5066 288.012 52.4233 287.857C52.3081 287.621 52.2787 287.345 52.3412 287.085C52.4036 286.825 52.5532 286.602 52.7596 286.459L61.2168 281.078C61.4327 280.952 61.6839 280.921 61.9196 280.992C62.1552 281.063 62.3575 281.23 62.4854 281.459C62.6006 281.696 62.63 281.972 62.5675 282.231C62.5051 282.491 62.3555 282.715 62.1491 282.857L53.6918 288.239C53.5521 288.329 53.3927 288.377 53.2305 288.376Z" fill="#EED563" fill-opacity="0.4"/>
<path d="M66.2816 300.664H56.2195C56.0777 300.703 55.9298 300.706 55.7869 300.673C55.6439 300.639 55.5098 300.571 55.3946 300.471C55.2794 300.372 55.1863 300.246 55.1222 300.101C55.0581 299.956 55.0248 299.797 55.0248 299.636C55.0248 299.475 55.0581 299.316 55.1222 299.172C55.1863 299.027 55.2794 298.9 55.3946 298.801C55.5098 298.702 55.6439 298.633 55.7869 298.6C55.9298 298.567 56.0777 298.57 56.2195 298.609H66.2816C66.4894 298.666 66.6739 298.799 66.8057 298.985C66.9375 299.171 67.009 299.4 67.009 299.636C67.009 299.872 66.9375 300.102 66.8057 300.288C66.6739 300.474 66.4894 300.606 66.2816 300.664Z" fill="#EED563" fill-opacity="0.4"/>
<path d="M61.6878 318.332C61.5254 318.335 61.3656 318.287 61.2265 318.195L52.7693 312.814C52.5628 312.671 52.4133 312.447 52.3508 312.188C52.2884 311.928 52.3177 311.652 52.4329 311.415C52.5623 311.188 52.7653 311.023 53.0008 310.954C53.2363 310.885 53.4868 310.918 53.7015 311.045L62.1587 316.415C62.3184 316.541 62.4395 316.717 62.5055 316.921C62.5716 317.125 62.5795 317.346 62.5283 317.554C62.477 317.763 62.369 317.95 62.2187 318.089C62.0685 318.228 61.8832 318.313 61.6878 318.332Z" fill="#EED563" fill-opacity="0.4"/>
<path d="M22.7655 279.394C22.6019 279.39 22.442 279.34 22.3007 279.25C22.1595 279.159 22.0416 279.03 21.9582 278.875L17.0761 269.564C16.9784 269.448 16.9055 269.31 16.8626 269.159C16.8198 269.008 16.8081 268.848 16.8284 268.692C16.8488 268.535 16.9006 268.386 16.9802 268.254C17.0597 268.123 17.165 268.013 17.2882 267.932C17.4114 267.851 17.5495 267.802 17.6923 267.787C17.8351 267.773 17.979 267.794 18.1135 267.849C18.248 267.904 18.3696 267.991 18.4695 268.104C18.5693 268.218 18.6449 268.355 18.6906 268.504L23.5631 277.815C23.6812 278.053 23.7121 278.332 23.6496 278.594C23.587 278.856 23.4357 279.081 23.2268 279.224C23.0887 279.323 22.9299 279.382 22.7655 279.394Z" fill="#EED563" fill-opacity="0.4"/>
<path d="M14.6062 288.387C14.4411 288.386 14.2789 288.339 14.1353 288.249L5.73573 282.868C5.59757 282.82 5.47113 282.737 5.36588 282.628C5.26063 282.518 5.17931 282.383 5.128 282.233C5.07669 282.084 5.05672 281.924 5.06959 281.765C5.08246 281.605 5.12784 281.451 5.20232 281.314C5.2768 281.177 5.37845 281.061 5.49968 280.973C5.6209 280.885 5.75854 280.829 5.90229 280.808C6.04605 280.788 6.19219 280.803 6.32978 280.853C6.46737 280.904 6.59283 280.988 6.69678 281.099L15.1444 286.48C15.3003 286.606 15.4181 286.781 15.4823 286.982C15.5465 287.183 15.5542 287.401 15.5044 287.607C15.4546 287.813 15.3495 287.998 15.203 288.137C15.0565 288.276 14.8752 288.363 14.6831 288.387H14.6062Z" fill="#EED563" fill-opacity="0.4"/>
<path d="M11.6174 300.674H1.8916C1.74778 300.724 1.59546 300.735 1.44695 300.707C1.29843 300.68 1.15788 300.614 1.03661 300.516C0.915351 300.417 0.816776 300.289 0.74884 300.141C0.680903 299.993 0.645508 299.829 0.645508 299.663C0.645508 299.497 0.680903 299.333 0.74884 299.185C0.816776 299.037 0.915351 298.908 1.03661 298.81C1.15788 298.712 1.29843 298.646 1.44695 298.618C1.59546 298.591 1.74778 298.602 1.8916 298.651H11.6174C11.7599 298.609 11.9095 298.603 12.0544 298.634C12.1993 298.665 12.3358 298.733 12.4531 298.832C12.5704 298.931 12.6655 299.058 12.731 299.204C12.7964 299.35 12.8305 299.511 12.8305 299.673C12.8305 299.836 12.7964 299.997 12.731 300.143C12.6655 300.289 12.5704 300.416 12.4531 300.515C12.3358 300.614 12.1993 300.682 12.0544 300.713C11.9095 300.744 11.7599 300.738 11.6174 300.696V300.674Z" fill="#EED563" fill-opacity="0.4"/>
<path d="M6.15857 318.343C5.96562 318.321 5.78322 318.235 5.63535 318.097C5.48749 317.958 5.38108 317.774 5.33013 317.568C5.27918 317.361 5.28606 317.143 5.34988 316.941C5.41369 316.739 5.53145 316.563 5.68766 316.436L14.1448 311.055C14.2488 310.944 14.3742 310.86 14.5118 310.81C14.6494 310.759 14.7956 310.744 14.9393 310.764C15.0831 310.785 15.2207 310.841 15.3419 310.929C15.4632 311.017 15.5648 311.134 15.6393 311.271C15.7138 311.408 15.7592 311.562 15.772 311.721C15.7849 311.88 15.7649 312.04 15.7136 312.19C15.6623 312.339 15.581 312.474 15.4757 312.584C15.3705 312.694 15.244 312.776 15.1059 312.824L6.64871 318.205C6.50056 318.302 6.33052 318.35 6.15857 318.343Z" fill="#EED563" fill-opacity="0.4"/>
<path d="M42.1689 325.896H25.639C25.435 325.897 25.2327 325.854 25.0439 325.769C24.8551 325.684 24.6834 325.558 24.5387 325.4C24.394 325.241 24.2791 325.053 24.2008 324.845C24.1224 324.638 24.0821 324.415 24.0821 324.19C24.0769 324.113 24.0769 324.035 24.0821 323.957C24.1686 322.739 24.0821 319 22.9384 317.337C16.3168 307.93 16.1246 298.874 16.1246 298.778C16.1246 293.581 17.9978 288.597 21.3321 284.921C24.6663 281.246 29.1886 279.182 33.904 279.182C38.6193 279.182 43.1416 281.246 46.4758 284.921C49.8101 288.597 51.6833 293.581 51.6833 298.778C51.6833 298.874 51.5007 307.93 44.8599 317.358C43.6778 319.074 43.6297 322.824 43.6874 323.894C43.6973 323.992 43.6973 324.092 43.6874 324.19C43.6875 324.637 43.5284 325.066 43.2444 325.385C42.9605 325.704 42.5743 325.887 42.1689 325.896ZM25.639 322.474C25.2673 322.472 24.9073 322.618 24.6249 322.884C24.3426 323.151 24.1567 323.52 24.1013 323.925C24.1586 323.521 24.345 323.153 24.6269 322.887C24.9089 322.621 25.2678 322.474 25.639 322.474ZM42.4284 322.474C42.6416 322.516 42.8445 322.606 43.0243 322.739C42.843 322.614 42.6401 322.531 42.4284 322.495V322.474ZM27.2151 322.474H40.6024C40.6024 321.701 40.6889 321.055 40.6889 321.034C40.7837 318.979 41.3743 316.99 42.3996 315.271C48.3677 306.797 48.5887 298.863 48.5887 298.778C48.4908 294.561 46.9022 290.554 44.1616 287.609C41.4211 284.665 37.7454 283.017 33.9184 283.017C30.0913 283.017 26.4156 284.665 23.6751 287.609C20.9346 290.554 19.346 294.561 19.248 298.778C19.248 298.863 19.4691 306.808 25.4179 315.261C26.4597 316.978 27.0516 318.98 27.1286 321.044C27.1286 321.044 27.1863 321.712 27.2151 322.474Z" fill="#EED563" fill-opacity="0.4"/>
<path d="M41.6404 329.561H26.1964C25.8058 329.527 25.4412 329.332 25.1753 329.015C24.9094 328.698 24.7617 328.282 24.7617 327.85C24.7617 327.418 24.9094 327.002 25.1753 326.685C25.4412 326.368 25.8058 326.173 26.1964 326.139H41.6404C42.0309 326.173 42.3955 326.368 42.6615 326.685C42.9274 327.002 43.0751 327.418 43.0751 327.85C43.0751 328.282 42.9274 328.698 42.6615 329.015C42.3955 329.332 42.0309 329.527 41.6404 329.561Z" fill="#EED563" fill-opacity="0.4"/>
<path d="M40.4968 333.215H27.3401C26.9495 333.181 26.5849 332.986 26.319 332.669C26.0531 332.352 25.9054 331.936 25.9054 331.505C25.9054 331.073 26.0531 330.657 26.319 330.34C26.5849 330.023 26.9495 329.828 27.3401 329.794H40.4968C40.8873 329.828 41.2519 330.023 41.5179 330.34C41.7838 330.657 41.9315 331.073 41.9315 331.505C41.9315 331.936 41.7838 332.352 41.5179 332.669C41.2519 332.986 40.8873 333.181 40.4968 333.215Z" fill="#EED563" fill-opacity="0.4"/>
<path d="M38.5651 336.785H29.2718C28.8614 336.785 28.4679 336.605 28.1777 336.286C27.8875 335.966 27.7245 335.532 27.7245 335.08C27.7245 334.627 27.8875 334.194 28.1777 333.874C28.4679 333.554 28.8614 333.374 29.2718 333.374H38.5651C38.9755 333.374 39.369 333.554 39.6592 333.874C39.9494 334.194 40.1124 334.627 40.1124 335.08C40.1124 335.532 39.9494 335.966 39.6592 336.286C39.369 336.605 38.9755 336.785 38.5651 336.785Z" fill="#EED563" fill-opacity="0.4"/>
<path d="M624.562 351.467C622.261 348.932 619.329 347.206 616.138 346.507C612.946 345.808 609.639 346.168 606.633 347.541C603.627 348.914 601.058 351.239 599.251 354.221C597.444 357.203 596.479 360.708 596.479 364.294C596.479 367.881 597.444 371.386 599.251 374.368C601.058 377.35 603.627 379.675 606.633 381.047C609.639 382.42 612.946 382.78 616.138 382.082C619.329 381.383 622.261 379.657 624.562 377.122C627.648 373.719 629.381 369.105 629.381 364.294C629.381 359.483 627.648 354.869 624.562 351.467ZM604.197 373.913C602.472 372.01 601.297 369.587 600.821 366.949C600.345 364.31 600.589 361.576 601.523 359.091C602.457 356.605 604.039 354.481 606.068 352.987C608.098 351.493 610.483 350.695 612.924 350.695C615.364 350.695 617.75 351.493 619.779 352.987C621.808 354.481 623.39 356.605 624.324 359.091C625.258 361.576 625.503 364.31 625.027 366.949C624.551 369.587 623.376 372.01 621.65 373.913C619.335 376.461 616.196 377.893 612.924 377.893C609.651 377.893 606.513 376.461 604.197 373.913Z" fill="#EED563" fill-opacity="0.4"/>
<path d="M587.504 399.282C586.661 400.209 585.519 400.73 584.328 400.73C583.137 400.73 581.995 400.209 581.152 399.282C580.311 398.353 579.838 397.094 579.838 395.781C579.838 394.469 580.311 393.21 581.152 392.28L593.472 378.711C593.889 378.251 594.384 377.886 594.929 377.637C595.474 377.387 596.058 377.259 596.648 377.259C597.239 377.259 597.823 377.387 598.368 377.637C598.913 377.886 599.408 378.251 599.825 378.711C600.665 379.639 601.137 380.896 601.137 382.207C601.137 383.517 600.665 384.775 599.825 385.702L587.504 399.282Z" fill="#EED563" fill-opacity="0.4"/>
<path d="M595.087 386.391C594.792 386.71 594.395 386.889 593.982 386.889C593.568 386.889 593.171 386.71 592.876 386.391C592.585 386.069 592.421 385.633 592.421 385.178C592.421 384.723 592.585 384.287 592.876 383.965L601.833 374.082C602.128 373.762 602.525 373.583 602.939 373.583C603.352 373.583 603.749 373.762 604.044 374.082C604.334 374.407 604.496 374.844 604.496 375.3C604.496 375.756 604.334 376.193 604.044 376.518L595.087 386.391Z" fill="#EED563" fill-opacity="0.4"/>
<path d="M619.315 357.25C621.337 359.467 622.528 362.441 622.651 365.582C622.774 368.722 621.82 371.798 619.978 374.199C620.236 373.969 620.483 373.725 620.718 373.468C622.835 371.114 624.021 367.932 624.014 364.618C624.008 361.303 622.811 358.127 620.684 355.783C618.558 353.439 615.676 352.12 612.669 352.113C609.662 352.106 606.775 353.412 604.64 355.746C604.409 356.011 604.188 356.286 603.977 356.562C606.148 354.541 608.928 353.491 611.767 353.618C614.607 353.746 617.3 355.042 619.315 357.25Z" fill="#EED563" fill-opacity="0.4"/>
<path d="M266.506 262.986L267.813 254.247L297.961 231.197L325.898 275.591" stroke="#EED563" stroke-opacity="0.4" stroke-width="3.3474" stroke-linecap="round" stroke-linejoin="round"/>
<path d="M267.563 262.181L268.697 254.861L297.72 232.68L325.148 276.258L325.408 282.254" stroke="#EED563" stroke-opacity="0.4" stroke-width="3.3474" stroke-linecap="round" stroke-linejoin="round"/>
<path d="M298.089 238.804L266.503 262.955L294.989 308.213L326.574 284.062L298.089 238.804Z" stroke="#EED563" stroke-opacity="0.4" stroke-width="3.3474" stroke-linecap="round" stroke-linejoin="round"/>
<path d="M275.318 263.981L296.634 247.679" stroke="#EED563" stroke-opacity="0.4" stroke-width="3.3474" stroke-linecap="round" stroke-linejoin="round"/>
<path d="M279.326 264.786L294.337 253.314" stroke="#EED563" stroke-opacity="0.4" stroke-width="3.3474" stroke-linecap="round" stroke-linejoin="round"/>
<path d="M297.23 298.8L318.546 282.497" stroke="#EED563" stroke-opacity="0.4" stroke-width="3.3474" stroke-linecap="round" stroke-linejoin="round"/>
<path d="M301.914 258.289L281.424 273.987L290.737 288.754L311.226 273.055L301.914 258.289Z" stroke="#EED563" stroke-opacity="0.4" stroke-width="3.34287" stroke-linecap="round" stroke-linejoin="round"/>
<path d="M568.139 448.009V442.342H564.103C563.886 440.541 563.459 438.779 562.834 437.098L566.361 434.852L563.786 429.948L560.259 432.173C559.256 430.736 558.09 429.447 556.789 428.338L558.827 424.44L554.367 421.612L552.34 425.489C550.799 424.799 549.184 424.332 547.534 424.101V419.61H542.383V424.101C540.75 424.338 539.152 424.804 537.626 425.489L535.598 421.612L531.139 424.44L533.186 428.338C531.882 429.447 530.713 430.735 529.707 432.173L526.17 429.927L523.604 434.831L527.122 437.077C526.5 438.758 526.077 440.52 525.863 442.32H521.817V448.009H525.901C526.115 449.809 526.539 451.571 527.16 453.252L523.643 455.498L526.209 460.402L529.746 458.156C530.754 459.591 531.923 460.88 533.224 461.991L531.187 465.879L535.637 468.717L537.674 464.841C539.199 465.526 540.798 465.992 542.431 466.228V470.719H547.573V466.228C549.222 465.997 550.838 465.53 552.378 464.841L554.406 468.717L558.865 465.879L556.828 461.991C558.127 460.877 559.296 459.589 560.307 458.156L563.834 460.402L566.409 455.487L562.892 453.252C563.493 451.567 563.9 449.806 564.103 448.009H568.139ZM533.292 445.17C533.294 442.627 533.98 440.142 535.263 438.028C536.546 435.915 538.369 434.268 540.501 433.297C542.633 432.325 544.978 432.072 547.241 432.569C549.503 433.067 551.581 434.292 553.212 436.091C554.843 437.89 555.953 440.181 556.402 442.676C556.852 445.17 556.62 447.755 555.737 450.104C554.854 452.453 553.358 454.461 551.44 455.873C549.521 457.286 547.266 458.04 544.959 458.04C543.424 458.04 541.905 457.706 540.487 457.058C539.07 456.41 537.783 455.46 536.699 454.262C535.615 453.065 534.756 451.643 534.172 450.08C533.587 448.516 533.288 446.84 533.292 445.149V445.17Z" stroke="#EED563" stroke-opacity="0.4" stroke-width="3.00842" stroke-linecap="round" stroke-linejoin="round"/>
<path d="M365.714 350.556V334.38C365.715 334.239 365.686 334.098 365.631 333.971C365.575 333.843 365.493 333.731 365.392 333.643C365.291 333.555 365.174 333.494 365.048 333.464C364.922 333.434 364.792 333.436 364.667 333.469L352.173 336.817C351.99 336.866 351.827 336.982 351.711 337.145C351.594 337.308 351.53 337.509 351.529 337.717V352.081C351.333 352.038 351.133 352.017 350.933 352.017C350.173 352.038 349.425 352.241 348.742 352.611C347.051 353.5 345.407 355.375 345.696 357.123C345.812 357.667 346.105 358.145 346.52 358.467C346.934 358.789 347.441 358.932 347.945 358.871C348.706 358.848 349.454 358.642 350.136 358.267C351.779 357.42 353.374 355.63 353.201 353.924V342.781L364.004 339.889V348.734C363.807 348.696 363.608 348.674 363.408 348.67C362.646 348.695 361.899 348.901 361.217 349.274C359.516 350.153 357.872 352.028 358.17 353.776C358.287 354.32 358.58 354.797 358.994 355.119C359.408 355.441 359.915 355.585 360.419 355.524C361.181 355.505 361.93 355.299 362.61 354.92C364.292 354.072 365.887 352.282 365.714 350.556Z" fill="#EED563" fill-opacity="0.4"/>
<path d="M459.791 99.0314V82.8245C459.792 82.6827 459.763 82.5425 459.707 82.4147C459.652 82.2869 459.57 82.1748 459.469 82.0869C459.368 81.9991 459.25 81.9378 459.124 81.9078C458.999 81.8777 458.868 81.8797 458.743 81.9135L446.25 85.2608C446.066 85.3125 445.903 85.43 445.787 85.5949C445.67 85.7598 445.606 85.9628 445.606 86.1718V100.567C445.409 100.529 445.21 100.508 445.01 100.504C444.249 100.529 443.501 100.735 442.819 101.108C441.127 101.987 439.484 103.872 439.772 105.62C439.891 106.162 440.185 106.637 440.599 106.957C441.013 107.277 441.519 107.419 442.021 107.357C442.782 107.333 443.529 107.131 444.212 106.764C445.856 105.906 447.451 104.116 447.278 102.41V91.2245L458.071 88.3327V97.1882C457.878 97.1409 457.682 97.116 457.484 97.1141C456.723 97.1393 455.976 97.3453 455.293 97.7179C453.592 98.5971 451.949 100.483 452.247 102.23C452.366 102.782 452.667 103.266 453.092 103.587C453.516 103.908 454.034 104.043 454.544 103.968C455.304 103.948 456.052 103.745 456.735 103.374C458.388 102.516 459.964 100.726 459.791 99.0314Z" fill="#EED563" fill-opacity="0.4"/>
<path d="M412.709 312.528L407.029 316.045L404.012 310.123L401.311 311.797L404.339 317.718L398.957 321.055L400.475 324.031L405.857 320.695L409.048 326.944L411.748 325.271L408.558 319.021L414.228 315.504L412.709 312.528Z" fill="#EED563" fill-opacity="0.4"/>
<path d="M105.877 330.323L100.206 333.851L97.1791 327.919L94.4786 329.593L97.5059 335.525L92.124 338.851L93.6425 341.827L99.0244 338.501L102.215 344.751L104.916 343.077L101.725 336.827L107.395 333.3L105.877 330.323Z" fill="#EED563" fill-opacity="0.4"/>
<path d="M514.628 607.472L508.958 610.999L505.94 605.067L503.23 606.741L506.258 612.673L500.885 615.999L502.404 618.975L507.776 615.639L510.976 621.899L513.667 620.225L510.477 613.965L516.156 610.448L514.628 607.472Z" fill="#EED563" fill-opacity="0.4"/>
<path d="M497.281 3.40027L491.611 6.91706L488.584 0.995728L485.883 2.66938L488.911 8.59071L483.538 11.9274L485.057 14.904L490.429 11.5673L493.62 17.8276L496.32 16.1539L493.13 9.89361L498.8 6.37683L497.281 3.40027Z" fill="#EED563" fill-opacity="0.4"/>
<path d="M34.3557 139.813L43.2934 139.835L51.5008 170.967L54.9317 117.293L113.93 117.442" stroke="#EED563" stroke-opacity="0.4" stroke-width="5.0105" stroke-linecap="round" stroke-linejoin="round"/>
<path d="M563.584 189.07L559.125 191.103L555.549 184.748C555.496 184.654 555.426 184.573 555.343 184.509C555.261 184.445 555.167 184.401 555.069 184.377C554.969 184.354 554.867 184.355 554.768 184.379C554.668 184.402 554.574 184.449 554.492 184.515L553.003 185.659L546.218 177.682C546.142 177.589 546.047 177.517 545.941 177.47C545.835 177.424 545.721 177.405 545.608 177.416C545.494 177.426 545.385 177.465 545.287 177.529C545.189 177.594 545.107 177.683 545.045 177.788L544.209 179.197L536.021 173.901C535.921 173.832 535.808 173.791 535.691 173.782C535.573 173.773 535.456 173.795 535.348 173.848C535.239 173.899 535.142 173.978 535.066 174.08C534.991 174.181 534.939 174.302 534.916 174.43L530.245 197.311L529.986 173.848C529.987 173.713 529.956 173.579 529.897 173.461C529.838 173.342 529.753 173.242 529.649 173.17C529.548 173.096 529.432 173.051 529.312 173.038C529.191 173.025 529.069 173.045 528.957 173.096L520.366 176.973L519.77 175.299C519.727 175.187 519.665 175.086 519.585 175.002C519.506 174.918 519.412 174.853 519.308 174.812C519.205 174.775 519.096 174.764 518.988 174.778C518.88 174.793 518.776 174.833 518.684 174.896L510.544 180.352L509.506 179.112C509.383 178.973 509.219 178.885 509.043 178.866C508.867 178.847 508.691 178.896 508.545 179.006L501.174 184.917C501.093 184.982 501.025 185.064 500.973 185.159C500.922 185.254 500.889 185.359 500.876 185.468L498.089 183.635L497.041 228.941L523.95 249.215L558.971 233.972L563.584 189.07ZM545.776 179.536L551.763 186.58L532.975 201.008L545.776 179.536ZM543.392 180.542L530.899 201.463L536.127 175.829L543.392 180.542ZM528.544 175.055L528.832 200.722L520.942 178.477L528.544 175.055ZM518.703 176.835L519.251 178.381L526.833 199.758L511.582 181.591L518.703 176.835ZM502.029 186.262L508.862 180.786L527.545 203.031L502.029 186.262ZM533.032 203.052L554.704 186.368L557.731 191.739L533.032 203.052Z" fill="#EED563" fill-opacity="0.4"/>
<path d="M152.612 527.92L151.421 532.539L145.337 531.765C145.246 531.753 145.154 531.762 145.066 531.791C144.979 531.82 144.897 531.869 144.828 531.935C144.757 531.998 144.699 532.076 144.657 532.166C144.616 532.255 144.592 532.354 144.588 532.454L144.491 534.265L135.554 535.081C135.453 535.089 135.356 535.123 135.269 535.18C135.182 535.237 135.109 535.316 135.054 535.409C134.998 535.503 134.961 535.61 134.946 535.722C134.931 535.833 134.938 535.947 134.967 536.055L135.4 537.496L127.385 540.896C127.285 540.937 127.196 541.004 127.124 541.09C127.052 541.177 127 541.281 126.972 541.394C126.947 541.508 126.946 541.626 126.97 541.74C126.993 541.854 127.04 541.96 127.106 542.051L139.186 558.533L123.944 545.568C123.856 545.495 123.753 545.446 123.645 545.426C123.536 545.406 123.425 545.414 123.32 545.451C123.214 545.489 123.12 545.555 123.044 545.644C122.968 545.733 122.914 545.841 122.887 545.96L120.552 554.836L119.139 554.36C119.044 554.33 118.945 554.323 118.848 554.337C118.75 554.352 118.656 554.388 118.572 554.444C118.49 554.505 118.421 554.585 118.369 554.678C118.318 554.772 118.285 554.876 118.274 554.985L117.217 564.391L115.833 564.507C115.669 564.523 115.515 564.603 115.4 564.733C115.285 564.864 115.217 565.036 115.208 565.217L114.862 574.285C114.86 574.489 114.929 574.686 115.055 574.835L112.316 575.979L140.82 602.228L168.969 592.578L178.839 556.69L152.612 527.92ZM136.524 536.479L144.405 535.759L143.165 558.523L136.524 536.479ZM135.823 538.905L142.262 560.376L128.75 541.913L135.823 538.905ZM123.925 547.379L140.57 561.552L121.859 555.196L123.925 547.379ZM119.533 556.054L120.84 556.489L138.831 562.569L118.601 564.274L119.533 556.054ZM116.256 574.348L116.573 565.948L141.339 563.83L116.256 574.348ZM144.443 559.582L145.914 533.333L151.065 533.99L144.443 559.582Z" fill="#EED563" fill-opacity="0.4"/>
<path d="M168.719 18.8869L164.683 21.4079L160.147 16.2493C160.078 16.1683 159.994 16.1039 159.902 16.0601C159.809 16.0164 159.709 15.9942 159.609 15.995C159.412 15.9839 159.22 16.0559 159.07 16.1963L157.792 17.4568L149.835 11.3236C149.745 11.25 149.642 11.1994 149.532 11.1756C149.422 11.1517 149.309 11.1553 149.2 11.1859C149.095 11.2075 148.996 11.2562 148.911 11.3279C148.825 11.3997 148.757 11.4926 148.71 11.5991L148.115 12.9973L139.225 9.46992C139.115 9.42705 138.998 9.41054 138.882 9.4215C138.766 9.43246 138.654 9.47064 138.552 9.53348C138.456 9.59072 138.376 9.67461 138.318 9.77681C138.261 9.87902 138.229 9.99598 138.225 10.1161L137.399 31.4392L133.295 10.3491C133.268 10.2233 133.213 10.1065 133.136 10.0088C133.06 9.91107 132.962 9.83523 132.853 9.7877C132.745 9.73043 132.627 9.7007 132.507 9.7007C132.387 9.7007 132.269 9.73043 132.161 9.7877L124.377 14.6074L123.521 13.188C123.46 13.0916 123.382 13.01 123.291 12.948C123.2 12.8861 123.098 12.8452 122.993 12.8278C122.887 12.8064 122.778 12.8105 122.673 12.8397C122.569 12.869 122.471 12.9227 122.387 12.9973L115.295 19.2046L114.065 18.2513C113.921 18.1415 113.748 18.0881 113.574 18.0997C113.4 18.1112 113.234 18.187 113.104 18.3148L106.847 24.7658C106.774 24.8402 106.717 24.9327 106.682 25.0358C106.647 25.1388 106.634 25.2496 106.645 25.359L103.609 24.1408L110.009 65.1029L139.744 79.2018L171.574 60.0608L168.719 18.8869ZM149.71 13.0926L156.735 18.5055L140.686 34.3946L149.71 13.0926ZM147.538 14.3638L138.744 35.1361L139.705 11.2389L147.538 14.3638ZM132.046 11.6838L136.534 34.7548L125.165 15.9421L132.046 11.6838ZM122.724 14.7557L123.512 16.0692L134.439 34.1616L116.525 20.158L122.724 14.7557ZM107.924 25.8251L113.69 19.8402L135.679 37.011L107.924 25.8251ZM141.07 36.1636L159.57 17.8276L163.414 22.2024L141.07 36.1636Z" fill="#EED563" fill-opacity="0.4"/>
</svg>
