<svg width="704" height="697" viewBox="0 0 704 697" fill="none" xmlns="http://www.w3.org/2000/svg">
<g clip-path="url(#clip0)">
<path opacity="0.4" d="M517.099 672.276C517.099 658.621 442.174 647.541 349.729 647.541C257.283 647.541 182.359 658.621 182.359 672.276C182.359 685.93 257.305 697.021 349.739 697.021C442.174 697.021 517.099 685.93 517.099 672.276Z" fill="url(#paint0_radial)"/>
<path d="M486.547 518.589C475.438 503.651 463.069 499.012 454.655 497.753C445.43 496.376 438.84 498.61 438.583 498.709C438.074 498.887 437.635 499.224 437.331 499.671C433.785 497.044 429.865 494.965 425.701 493.503C415.856 490.037 399.943 488.574 379.76 500.929C371.853 500.145 360.064 501.45 347.914 511.637C340.81 517.567 336.382 523.86 334.689 530.351C330.333 532.871 326.48 536.172 323.322 540.09C317.945 546.725 312.081 558.309 314.71 575.778C314.72 575.838 314.733 575.897 314.749 575.956C311.455 582.407 309.201 592.251 314.229 605.028C318.947 617.014 327.335 622.437 333.549 624.869C337.223 626.313 341.115 627.126 345.06 627.274C345.186 627.485 345.311 627.702 345.449 627.933C350.24 635.405 359.432 640.235 372.802 642.304C371.905 647.576 371.326 653.335 371.767 658.329C371.823 658.965 372.115 659.557 372.586 659.987C373.057 660.418 373.672 660.656 374.311 660.656L381.058 659.845C381.565 659.844 382.059 659.693 382.479 659.41C382.9 659.128 383.226 658.726 383.417 658.257C383.529 657.987 395.317 632.367 413.26 615.485C418.273 617.123 423.583 617.644 428.818 617.014C437.239 615.94 449.041 609.39 457.152 592.541C458.956 593.018 460.814 593.259 462.681 593.259C466.832 593.259 471.668 592.093 477.091 588.878C486.976 583.026 489.756 577.3 490.56 572.108C490.862 570.128 490.92 568.118 490.731 566.124C493.034 561.641 494.569 556.803 495.272 551.812C496.458 543.589 495.904 531.174 486.547 518.589Z" fill="#522AA6"/>
<path d="M381.098 662.672H373.269C372.857 662.673 372.46 662.52 372.156 662.241C371.852 661.963 371.663 661.58 371.629 661.17C370.436 647.674 376.531 628.631 376.788 627.827C376.924 627.415 377.218 627.072 377.606 626.875C377.993 626.678 378.443 626.642 378.857 626.775C379.27 626.908 379.615 627.199 379.815 627.585C380.015 627.971 380.055 628.421 379.925 628.835C379.865 629.02 374.238 646.627 374.811 659.377H380.004C382.35 653.954 393.782 628.987 411.903 612.593C412.137 612.38 412.428 612.239 412.74 612.188C413.052 612.136 413.372 612.176 413.662 612.303C414.782 612.784 441.298 623.814 455.788 591.217C455.981 590.847 456.307 590.563 456.701 590.424C457.095 590.286 457.527 590.302 457.909 590.469C458.292 590.636 458.597 590.943 458.762 591.326C458.927 591.71 458.941 592.142 458.799 592.535C450.556 611.084 438.372 616.309 429.595 617.423C424.129 618.108 418.579 617.538 413.366 615.756C394.369 633.362 382.738 661.374 382.62 661.657C382.495 661.958 382.284 662.216 382.013 662.396C381.742 662.577 381.423 662.673 381.098 662.672Z" fill="#FAEED4"/>
<path d="M464.559 594.61C454.497 594.61 448.467 587.744 447.624 586.703C443.67 582.934 442.168 577.801 443.552 572.944C444.566 569.36 447.084 566.652 449.963 566.059C451.406 565.762 454.22 565.742 456.869 568.984C457.005 569.152 457.108 569.345 457.17 569.553C457.232 569.76 457.253 569.978 457.231 570.193C457.209 570.408 457.144 570.617 457.042 570.808C456.939 570.999 456.799 571.167 456.632 571.304C456.464 571.44 456.271 571.543 456.063 571.605C455.856 571.667 455.638 571.688 455.423 571.665C455.207 571.643 454.998 571.579 454.808 571.476C454.617 571.374 454.449 571.234 454.312 571.066C453.502 570.078 452.21 568.958 450.629 569.287C449.047 569.617 447.393 571.462 446.721 573.847C445.673 577.531 446.886 581.471 449.97 584.39C450.036 584.45 450.095 584.516 450.148 584.588C450.556 585.115 460.295 597.444 477.296 587.362C484.346 583.184 488.432 577.768 489.44 571.277C490.58 563.93 487.463 556.537 483.813 552.478C482.517 550.963 480.814 549.852 478.905 549.276C476.997 548.7 474.963 548.684 473.046 549.229C471.864 549.549 470.808 550.223 470.021 551.161C469.234 552.099 468.754 553.255 468.644 554.474C468.44 556.418 468.789 557.888 469.678 558.843C471.069 560.339 473.441 560.293 473.474 560.293C473.911 560.277 474.336 560.436 474.656 560.733C474.976 561.031 475.165 561.444 475.181 561.881C475.196 562.318 475.038 562.743 474.74 563.063C474.442 563.383 474.029 563.572 473.593 563.588C473.441 563.588 469.725 563.706 467.293 561.117C465.712 559.43 465.059 557.084 465.362 554.132C465.548 552.287 466.281 550.54 467.467 549.115C468.653 547.689 470.238 546.651 472.018 546.132C476.894 544.557 482.62 546.238 486.257 550.323C490.389 554.969 493.98 563.416 492.675 571.818C491.522 579.224 486.784 585.596 478.956 590.235C473.54 593.444 468.71 594.61 464.559 594.61Z" fill="#FAEED4"/>
<path d="M491.186 566.757C490.888 566.759 490.596 566.677 490.343 566.52C490.156 566.409 489.994 566.263 489.864 566.089C489.735 565.916 489.641 565.718 489.589 565.508C489.536 565.298 489.525 565.079 489.557 564.865C489.59 564.651 489.664 564.445 489.776 564.26C490.33 563.337 502.889 541.717 486.073 519.103C465.797 491.843 441.489 499.915 441.265 499.994C441.059 500.074 440.839 500.111 440.617 500.104C440.396 500.097 440.179 500.046 439.978 499.953C439.777 499.86 439.597 499.728 439.448 499.564C439.3 499.4 439.186 499.208 439.113 498.999C439.04 498.789 439.011 498.568 439.026 498.347C439.04 498.126 439.1 497.911 439.2 497.713C439.3 497.516 439.438 497.341 439.608 497.198C439.777 497.056 439.973 496.949 440.184 496.883C440.461 496.791 447.037 494.544 456.348 495.941C464.914 497.219 477.434 501.931 488.735 517.133C506.908 541.566 492.768 565.709 492.623 565.953C492.475 566.201 492.264 566.406 492.012 566.547C491.76 566.688 491.475 566.761 491.186 566.757Z" fill="#FAEED4"/>
<path d="M433.417 533.889C429.128 533.889 425.919 532.506 423.876 529.771C419.606 524.045 422.373 514.569 422.499 514.167C422.551 513.949 422.648 513.745 422.782 513.565C422.917 513.386 423.086 513.236 423.28 513.125C423.475 513.013 423.69 512.943 423.913 512.917C424.135 512.891 424.361 512.912 424.575 512.976C424.79 513.041 424.989 513.149 425.16 513.293C425.332 513.437 425.472 513.615 425.573 513.815C425.673 514.015 425.732 514.234 425.745 514.458C425.758 514.682 425.725 514.906 425.648 515.116C425.648 515.195 423.237 523.412 426.525 527.807C427.928 529.679 430.182 530.595 433.417 530.595H433.463C438.919 530.595 443.202 527.774 445.206 522.898C447.617 517.027 445.93 509.792 441.015 504.903L440.909 504.791C436.49 500.129 431 496.614 424.917 494.551C411.185 489.787 396.141 492.455 380.215 502.458C379.845 502.691 379.398 502.768 378.972 502.672C378.545 502.575 378.175 502.314 377.941 501.944C377.708 501.574 377.631 501.127 377.728 500.701C377.824 500.275 378.086 499.904 378.455 499.671C399.495 486.426 416.015 487.902 426.169 491.474C432.729 493.712 438.639 497.527 443.38 502.583C449.311 508.514 451.202 516.941 448.25 524.124C445.753 530.206 440.231 533.843 433.477 533.863L433.417 533.889Z" fill="#FAEED4"/>
<path d="M348.566 554.942C343.439 554.942 339.341 551.714 337.549 549.42C333.898 544.906 332.083 539.181 332.468 533.389C333.028 525.33 337.773 517.508 346.563 510.135C359.201 499.546 371.405 498.419 379.417 499.335C384.511 499.88 389.442 501.449 393.914 503.947C406.954 510.497 410.387 522.536 407.007 531.056C404.226 538.1 397.551 541.401 390.395 539.279C389.07 538.946 387.833 538.331 386.767 537.475C385.702 536.62 384.833 535.545 384.221 534.324C381.816 529.376 384.221 523.122 384.346 522.872C384.417 522.659 384.53 522.462 384.679 522.295C384.828 522.127 385.01 521.991 385.213 521.896C385.416 521.801 385.637 521.749 385.861 521.742C386.086 521.736 386.309 521.775 386.518 521.858C386.726 521.94 386.916 522.065 387.074 522.223C387.233 522.382 387.358 522.571 387.441 522.78C387.524 522.988 387.563 523.212 387.557 523.436C387.551 523.66 387.498 523.881 387.404 524.084C387.404 524.13 385.427 529.264 387.186 532.894C387.604 533.7 388.191 534.405 388.908 534.961C389.625 535.517 390.454 535.912 391.338 536.117C398.026 538.093 402.309 533.982 403.943 529.843C406.678 522.925 404.226 512.784 392.372 506.86L392.234 506.781C391.377 506.253 371.003 493.938 348.652 512.672C340.599 519.419 336.25 526.45 335.73 533.566C335.409 538.518 336.935 543.413 340.013 547.305L340.085 547.391C340.303 547.668 345.581 554.204 352.889 550.626C356.335 548.933 357.172 546.475 357.27 544.696C357.402 542.264 356.19 540.169 354.918 539.358C354.614 539.134 354.251 539.002 353.874 538.978C353.497 538.953 353.121 539.037 352.79 539.22C352.404 539.427 351.953 539.473 351.534 539.347C351.115 539.221 350.763 538.933 350.556 538.548C350.349 538.163 350.303 537.711 350.429 537.292C350.555 536.873 350.843 536.521 351.228 536.314C352.076 535.855 353.034 535.638 353.997 535.685C354.96 535.733 355.892 536.044 356.691 536.584C359.195 538.172 360.743 541.513 360.559 544.88C360.44 547.042 359.471 551.048 354.338 553.565C352.545 554.461 350.57 554.932 348.566 554.942Z" fill="#FAEED4"/>
<path d="M314.15 577.023C313.756 577.025 313.375 576.884 313.076 576.628C312.777 576.371 312.581 576.016 312.522 575.626C309.886 557.888 315.817 546.159 321.233 539.438C324.68 535.087 329.007 531.515 333.931 528.954C334.325 528.786 334.77 528.778 335.17 528.932C335.57 529.087 335.894 529.391 336.073 529.78C336.253 530.17 336.273 530.614 336.13 531.018C335.987 531.422 335.692 531.755 335.308 531.945C330.804 534.334 326.844 537.63 323.678 541.625C316.43 550.639 313.794 561.907 315.771 575.132C315.803 575.346 315.794 575.565 315.742 575.775C315.69 575.986 315.597 576.184 315.468 576.358C315.34 576.533 315.178 576.68 314.993 576.792C314.807 576.904 314.601 576.978 314.387 577.01C314.308 577.021 314.229 577.025 314.15 577.023Z" fill="#FAEED4"/>
<path d="M343.696 628.124C340.916 628.124 320.489 627.359 311.969 605.72C301.261 578.499 322.946 564.167 323.171 564.022L323.283 563.957C325.171 562.897 327.258 562.239 329.413 562.026C331.567 561.813 333.743 562.048 335.802 562.718C337.612 563.358 339.267 564.371 340.661 565.691C342.055 567.011 343.156 568.609 343.894 570.381C345.732 574.625 344.612 580.008 341.041 584.094C338.168 587.388 334.511 588.805 331.262 587.889C331.05 587.834 330.85 587.738 330.675 587.605C330.5 587.472 330.354 587.305 330.244 587.115C330.135 586.924 330.065 586.714 330.038 586.496C330.011 586.278 330.027 586.057 330.087 585.846C330.147 585.634 330.248 585.437 330.386 585.265C330.523 585.094 330.693 584.951 330.886 584.846C331.079 584.741 331.291 584.676 331.509 584.654C331.728 584.633 331.949 584.655 332.158 584.72C334.135 585.267 336.573 584.199 338.563 581.926C340.804 579.356 342.392 575.198 340.87 571.686C340.318 570.329 339.484 569.105 338.423 568.095C337.362 567.085 336.098 566.312 334.715 565.828C333.102 565.317 331.402 565.142 329.719 565.314C328.036 565.486 326.406 566.002 324.93 566.83C323.612 567.713 305.518 580.246 315.046 604.514C323.276 625.422 343.044 624.875 343.881 624.842C344.318 624.824 344.744 624.98 345.066 625.276C345.388 625.572 345.579 625.984 345.597 626.42C345.616 626.857 345.46 627.284 345.164 627.606C344.868 627.928 344.456 628.119 344.019 628.137L343.696 628.124Z" fill="#FAEED4"/>
<path d="M374.811 644.09C374.743 644.096 374.675 644.096 374.607 644.09C359.557 642.251 349.33 637.263 344.21 629.277C342.517 626.583 341.399 623.568 340.927 620.421C340.455 617.274 340.64 614.064 341.469 610.992C342.257 608.53 343.815 606.386 345.914 604.877C348.013 603.368 350.541 602.573 353.126 602.61C357.844 602.61 363.741 605.417 366.146 613.265C367.201 616.698 364.44 620.876 361.198 622.622C358.147 624.262 355.043 623.702 352.902 621.106C352.751 620.941 352.635 620.748 352.561 620.537C352.488 620.326 352.458 620.102 352.473 619.879C352.489 619.656 352.549 619.439 352.652 619.24C352.754 619.042 352.895 618.866 353.068 618.724C353.24 618.581 353.439 618.476 353.654 618.413C353.868 618.35 354.093 618.331 354.315 618.358C354.537 618.385 354.751 618.457 354.944 618.569C355.137 618.681 355.305 618.831 355.439 619.011C356.565 620.375 357.976 620.612 359.636 619.722C361.784 618.563 363.478 615.769 362.997 614.227C361.402 609.021 357.725 605.911 353.113 605.904C351.23 605.87 349.385 606.442 347.852 607.536C346.319 608.63 345.179 610.188 344.599 611.98C344.599 612.072 342.161 620.032 346.971 627.504C351.551 634.601 360.967 639.069 374.97 640.782C375.406 640.808 375.815 641.007 376.105 641.334C376.396 641.662 376.544 642.091 376.518 642.528C376.492 642.965 376.293 643.374 375.966 643.664C375.638 643.954 375.209 644.103 374.772 644.077L374.811 644.09Z" fill="#FAEED4"/>
<path d="M360.288 605.944C358.164 605.958 356.042 605.824 353.936 605.542C353.718 605.515 353.507 605.444 353.317 605.333C353.126 605.223 352.96 605.076 352.827 604.9C352.694 604.724 352.598 604.524 352.545 604.31C352.491 604.097 352.48 603.875 352.514 603.657C352.547 603.44 352.624 603.231 352.74 603.043C352.855 602.856 353.007 602.694 353.186 602.566C353.365 602.438 353.569 602.348 353.783 602.3C353.998 602.252 354.22 602.247 354.437 602.287C360.147 602.981 365.935 602.653 371.53 601.318C382.916 598.426 389.677 591.25 391.621 579.988C392.702 573.735 390.962 568.51 386.916 565.637C385.132 564.379 383.029 563.65 380.85 563.534C378.67 563.417 376.502 563.918 374.594 564.978C372.017 566.434 367.787 570.249 368.433 579.343C368.463 579.78 368.319 580.211 368.032 580.541C367.745 580.872 367.338 581.075 366.901 581.105C366.464 581.136 366.033 580.992 365.702 580.704C365.372 580.417 365.169 580.01 365.138 579.573C364.578 571.6 367.431 565.235 372.973 562.105C375.42 560.742 378.202 560.097 381 560.244C383.797 560.391 386.496 561.323 388.787 562.935C393.94 566.566 396.141 572.977 394.836 580.535C392.682 593.055 384.854 601.351 372.222 604.521C368.316 605.478 364.309 605.955 360.288 605.944Z" fill="#FAEED4"/>
<path d="M431.085 592.693C429.711 592.65 428.37 592.266 427.182 591.576C425.994 590.885 424.996 589.911 424.278 588.739C422.255 585.609 421.78 580.384 427.111 575.936C434.689 569.623 443.117 575.231 446.517 579.073C446.807 579.399 446.955 579.828 446.929 580.264C446.903 580.7 446.705 581.109 446.378 581.399C446.052 581.689 445.623 581.837 445.187 581.811C444.751 581.785 444.343 581.587 444.052 581.26C443.736 580.904 436.231 572.628 429.22 578.466C424.607 582.321 426.386 585.932 427.045 586.947C428.185 588.706 430.498 590.031 432.547 589.029C432.941 588.838 433.394 588.81 433.807 588.953C434.22 589.096 434.56 589.397 434.752 589.79C434.943 590.183 434.97 590.637 434.828 591.05C434.685 591.463 434.384 591.803 433.99 591.994C433.087 592.443 432.093 592.681 431.085 592.693Z" fill="#FAEED4"/>
<path d="M435.829 180.664L432.492 179.488L412.535 236.108L448.456 248.82C448.456 248.82 448.36 252.94 451.793 254.116" stroke="#EED45B" stroke-width="3.00842" stroke-linecap="round" stroke-linejoin="round"/>
<path d="M451.57 254.021C455.002 255.228 457.439 251.902 457.439 251.902L492.459 264.254L512.427 207.623L509.09 206.458" stroke="#EED45B" stroke-width="3.00842" stroke-linecap="round" stroke-linejoin="round"/>
<path d="M453.583 247.506C453.583 247.506 441.348 241.998 417.482 232.676C423.901 214.456 431.348 193.333 436.284 179.34C437.831 179.88 438.604 180.198 440.003 180.77" stroke="#EED45B" stroke-width="3.00842" stroke-linecap="round" stroke-linejoin="round"/>
<path d="M453.519 247.485C453.519 247.485 467.152 251.108 490.743 258.533C497.173 240.313 504.62 219.191 509.556 205.187C508.105 204.678 506.707 204.223 505.319 203.82" stroke="#EED45B" stroke-width="3.00842" stroke-linecap="round" stroke-linejoin="round"/>
<path d="M454.017 248.544C454.017 248.544 446.443 240.832 422.577 231.521C428.996 213.301 436.443 192.179 441.38 178.185C465.521 186.66 471.708 198.376 471.708 198.376L454.017 248.544Z" stroke="#EED45B" stroke-width="3.00842" stroke-linecap="round" stroke-linejoin="round"/>
<path d="M454.017 248.544C454.017 248.544 463.922 246.998 487.512 254.423C493.942 236.224 501.389 215.038 506.347 201.077C483.868 193.153 471.729 198.376 471.729 198.376L454.017 248.544Z" stroke="#EED45B" stroke-width="3.00842" stroke-linecap="round" stroke-linejoin="round"/>
<path d="M598.813 523.804L596.048 525.997L633.463 572.934L663.24 549.185C663.24 549.185 666.683 551.452 669.532 549.185" stroke="#EED45B" stroke-width="3.00842" stroke-linecap="round" stroke-linejoin="round"/>
<path d="M669.363 549.333C672.212 547.066 670.708 543.242 670.708 543.242L699.744 520.118L662.308 473.191L659.543 475.394" stroke="#EED45B" stroke-width="3.00842" stroke-linecap="round" stroke-linejoin="round"/>
<path d="M664.914 544.164C664.914 544.164 653.759 551.579 633.219 566.939L597.945 522.724C599.226 521.664 599.904 521.209 601.122 520.33" stroke="#EED45B" stroke-width="3.00842" stroke-linecap="round" stroke-linejoin="round"/>
<path d="M664.85 544.206C664.85 544.206 675.147 534.567 693.949 518.497L658.685 474.282C657.488 475.235 656.355 476.178 655.285 477.131" stroke="#EED45B" stroke-width="3.00842" stroke-linecap="round" stroke-linejoin="round"/>
<path d="M666.015 544.354C666.015 544.354 655.422 546.685 634.914 561.992L599.65 517.777C619.671 501.813 632.849 502.766 632.849 502.766L666.015 544.354Z" stroke="#EED45B" stroke-width="3.00842" stroke-linecap="round" stroke-linejoin="round"/>
<path d="M666.015 544.354C666.015 544.354 669.956 535.128 688.759 519.058L653.484 474.843C634.851 489.673 632.849 502.766 632.849 502.766L666.015 544.354Z" stroke="#EED45B" stroke-width="3.00842" stroke-linecap="round" stroke-linejoin="round"/>
<path d="M25.7305 463.297L22.1818 464.843L48.5584 525.118L86.8628 508.391C86.8628 508.391 89.8606 511.76 93.5152 510.16" stroke="#EED45B" stroke-width="3.29443" stroke-linecap="round" stroke-linejoin="round"/>
<path d="M93.2186 510.266C96.8732 508.667 96.3966 504.207 96.3966 504.207L133.684 487.894L107.318 427.609L103.769 429.166" stroke="#EED45B" stroke-width="3.29443" stroke-linecap="round" stroke-linejoin="round"/>
<path d="M89.9666 503.54C89.9666 503.54 76.0473 508.285 49.9673 518.698L25.1267 461.856C26.7686 461.136 27.6266 460.797 29.1732 460.235" stroke="#EED45B" stroke-width="3.29443" stroke-linecap="round" stroke-linejoin="round"/>
<path d="M89.8924 503.571C89.8924 503.571 103.526 496.273 128.027 484.567L103.134 427.778C101.587 428.446 100.125 429.134 98.727 429.833" stroke="#EED45B" stroke-width="3.29443" stroke-linecap="round" stroke-linejoin="round"/>
<path d="M91.1 504.048C91.1 504.048 79.257 503.54 53.1876 513.942C44.7132 494.546 34.8511 472.046 28.3364 457.153C54.0456 445.903 67.7318 450.638 67.7318 450.638L91.1 504.048Z" stroke="#EED45B" stroke-width="3.29443" stroke-linecap="round" stroke-linejoin="round"/>
<path d="M91.1 504.048C91.1 504.048 97.869 495.394 122.328 483.688L97.4559 426.899C73.5262 437.376 67.7106 450.638 67.7106 450.638L91.1 504.048Z" stroke="#EED45B" stroke-width="3.29443" stroke-linecap="round" stroke-linejoin="round"/>
<path d="M661.429 99.5745C655.285 127.773 638.41 148.027 623.739 144.838C609.067 141.65 602.161 116.237 608.305 87.9963C614.449 59.7553 631.344 39.4908 645.995 42.6899C660.645 45.889 667.573 71.3335 661.429 99.5745Z" stroke="#EED45B" stroke-width="3.17791" stroke-linecap="round" stroke-linejoin="round"/>
<path d="M642.276 120.114C614.735 128.589 589.015 123.716 584.735 109.267C580.456 94.8182 599.29 76.2698 626.789 67.7954C654.289 59.3209 680.072 64.1831 684.31 78.632C688.547 93.0809 669.776 111.661 642.276 120.114Z" stroke="#EED45B" stroke-width="3.17791" stroke-linecap="round" stroke-linejoin="round"/>
<path d="M616.345 114.172C595.159 94.5958 586.07 69.681 596.123 58.5053C606.175 47.3297 631.503 54.1516 652.721 73.7275C673.939 93.3034 682.985 118.218 672.943 129.394C662.901 140.57 637.552 133.748 616.345 114.172Z" stroke="#EED45B" stroke-width="3.17791" stroke-linecap="round" stroke-linejoin="round"/>
<path d="M647.043 96.3966C646.495 98.9139 645.212 101.212 643.357 103C641.503 104.789 639.159 105.987 636.624 106.444C634.088 106.901 631.474 106.596 629.112 105.568C626.75 104.54 624.745 102.834 623.352 100.667C621.959 98.4993 621.24 95.9676 621.285 93.3915C621.331 90.8155 622.139 88.3108 623.608 86.194C625.077 84.0772 627.14 82.4434 629.537 81.499C631.934 80.5546 634.557 80.3421 637.075 80.8884C638.748 81.2514 640.334 81.9406 641.74 82.9166C643.147 83.8926 644.348 85.1363 645.273 86.5766C646.199 88.0169 646.832 89.6255 647.136 91.3104C647.439 92.9954 647.408 94.7237 647.043 96.3966Z" fill="#EED45C" fill-opacity="0.4"/>
<path d="M208.058 239.191C199.668 237.072 204.731 216.627 196.331 214.551C187.931 212.475 182.878 232.962 174.478 230.886C166.077 228.809 171.141 208.322 162.741 206.246C154.34 204.17 149.277 224.657 140.887 222.581C132.498 220.504 137.55 200.018 129.15 197.941" stroke="#EED45B" stroke-width="3.00842" stroke-linecap="round" stroke-linejoin="round"/>
<path d="M124.532 218.534C132.932 220.653 137.995 200.134 146.385 202.21C154.775 204.287 149.722 224.763 158.122 226.839C166.522 228.915 171.575 208.439 179.976 210.515C188.376 212.591 183.312 233.047 191.734 235.165C200.155 237.284 205.198 216.765 213.598 218.841" stroke="#EED45B" stroke-width="3.00842" stroke-linecap="round" stroke-linejoin="round"/>
<path d="M638.548 287.728C638.548 289.224 638.104 290.686 637.273 291.93C636.442 293.174 635.261 294.143 633.879 294.715C632.497 295.288 630.976 295.438 629.509 295.146C628.041 294.854 626.694 294.134 625.636 293.076C624.578 292.018 623.858 290.671 623.566 289.203C623.274 287.736 623.424 286.215 623.997 284.833C624.569 283.451 625.538 282.27 626.782 281.439C628.026 280.608 629.488 280.164 630.984 280.164C632.99 280.164 634.914 280.961 636.332 282.38C637.751 283.798 638.548 285.722 638.548 287.728Z" stroke="#EED45B" stroke-width="3.00842" stroke-linecap="round" stroke-linejoin="round"/>
<path d="M657.107 309.136C657.107 310.632 656.663 312.095 655.832 313.338C655.001 314.582 653.82 315.552 652.438 316.124C651.056 316.696 649.535 316.846 648.068 316.554C646.601 316.263 645.253 315.542 644.195 314.484C643.137 313.427 642.417 312.079 642.125 310.612C641.833 309.145 641.983 307.624 642.556 306.242C643.128 304.86 644.097 303.679 645.341 302.848C646.585 302.016 648.047 301.573 649.543 301.573C651.549 301.573 653.473 302.37 654.891 303.788C656.31 305.207 657.107 307.13 657.107 309.136V309.136Z" stroke="#EED45B" stroke-width="3.00842" stroke-linecap="round" stroke-linejoin="round"/>
<path d="M688.547 276.298C688.547 277.794 688.103 279.256 687.272 280.5C686.441 281.744 685.26 282.713 683.878 283.286C682.496 283.858 680.975 284.008 679.508 283.716C678.041 283.424 676.693 282.704 675.635 281.646C674.577 280.588 673.857 279.241 673.565 277.773C673.273 276.306 673.423 274.786 673.996 273.404C674.568 272.022 675.538 270.84 676.781 270.009C678.025 269.178 679.487 268.735 680.983 268.735C682.989 268.735 684.913 269.531 686.331 270.95C687.75 272.368 688.547 274.292 688.547 276.298Z" stroke="#EED45B" stroke-width="3.00842" stroke-linecap="round" stroke-linejoin="round"/>
<path d="M609.629 296.34L623.421 290.99" stroke="#EED45B" stroke-width="3.00842" stroke-linecap="round" stroke-linejoin="round"/>
<path d="M636.334 293.077L644.893 303.183" stroke="#EED45B" stroke-width="3.00842" stroke-linecap="round" stroke-linejoin="round"/>
<path d="M655.295 302.42L677.943 283.226" stroke="#EED45B" stroke-width="3.00842" stroke-linecap="round" stroke-linejoin="round"/>
<path d="M687 280.842L701.989 291.594" stroke="#EED45B" stroke-width="3.00842" stroke-linecap="round" stroke-linejoin="round"/>
<path d="M638.548 287.728C638.548 289.224 638.104 290.686 637.273 291.93C636.442 293.174 635.261 294.143 633.879 294.715C632.497 295.288 630.976 295.438 629.509 295.146C628.041 294.854 626.694 294.134 625.636 293.076C624.578 292.018 623.858 290.671 623.566 289.203C623.274 287.736 623.424 286.215 623.997 284.833C624.569 283.451 625.538 282.27 626.782 281.439C628.026 280.608 629.488 280.164 630.984 280.164C632.99 280.164 634.914 280.961 636.332 282.38C637.751 283.798 638.548 285.722 638.548 287.728Z" stroke="#EED45B" stroke-width="3.00842" stroke-linecap="round" stroke-linejoin="round"/>
<path d="M657.107 309.136C657.107 310.632 656.663 312.095 655.832 313.338C655.001 314.582 653.82 315.552 652.438 316.124C651.056 316.696 649.535 316.846 648.068 316.554C646.601 316.263 645.253 315.542 644.195 314.484C643.137 313.427 642.417 312.079 642.125 310.612C641.833 309.145 641.983 307.624 642.556 306.242C643.128 304.86 644.097 303.679 645.341 302.848C646.585 302.016 648.047 301.573 649.543 301.573C651.549 301.573 653.473 302.37 654.891 303.788C656.31 305.207 657.107 307.13 657.107 309.136V309.136Z" stroke="#EED45B" stroke-width="3.00842" stroke-linecap="round" stroke-linejoin="round"/>
<path d="M688.547 276.298C688.547 277.794 688.103 279.256 687.272 280.5C686.441 281.744 685.26 282.713 683.878 283.286C682.496 283.858 680.975 284.008 679.508 283.716C678.041 283.424 676.693 282.704 675.635 281.646C674.577 280.588 673.857 279.241 673.565 277.773C673.273 276.306 673.423 274.786 673.996 273.404C674.568 272.022 675.538 270.84 676.781 270.009C678.025 269.178 679.487 268.735 680.983 268.735C682.989 268.735 684.913 269.531 686.331 270.95C687.75 272.368 688.547 274.292 688.547 276.298Z" stroke="#EED45B" stroke-width="3.00842" stroke-linecap="round" stroke-linejoin="round"/>
<path d="M609.629 296.34L623.421 290.99" stroke="#EED45B" stroke-width="3.00842" stroke-linecap="round" stroke-linejoin="round"/>
<path d="M636.334 293.077L644.893 303.183" stroke="#EED45B" stroke-width="3.00842" stroke-linecap="round" stroke-linejoin="round"/>
<path d="M655.295 302.42L677.943 283.226" stroke="#EED45B" stroke-width="3.00842" stroke-linecap="round" stroke-linejoin="round"/>
<path d="M687 280.842L701.989 291.594" stroke="#EED45B" stroke-width="3.00842" stroke-linecap="round" stroke-linejoin="round"/>
<path d="M217.718 322.727H204.541V372.186H217.718V322.727Z" stroke="#EED45B" stroke-width="3.3474" stroke-linecap="round" stroke-linejoin="round"/>
<path d="M239.148 346.085H224.318V372.186H239.148V346.085Z" stroke="#EED45B" stroke-width="3.3474" stroke-linecap="round" stroke-linejoin="round"/>
<path d="M258.915 333.723H245.737V372.197H258.915V333.723Z" stroke="#EED45B" stroke-width="3.3474" stroke-linecap="round" stroke-linejoin="round"/>
<path d="M193.016 372.186H281.997" stroke="#EED45B" stroke-width="3.3474" stroke-linecap="round" stroke-linejoin="round"/>
<path d="M193.016 372.186V299.37" stroke="#EED45B" stroke-width="3.3474" stroke-linecap="round" stroke-linejoin="round"/>
<path d="M548.782 356.508L538.126 361.222L538.581 366.815L531.696 369.866L529.704 338.977L537.872 335.354L559.481 357.599L552.596 360.65L548.782 356.508ZM537.596 355.576L544.874 352.345L536.558 343.384L537.596 355.576Z" fill="#EED45C" fill-opacity="0.4"/>
<path d="M253.608 114.225C255.03 114.147 256.454 114.363 257.789 114.858C259.125 115.354 260.345 116.119 261.372 117.106C263.194 119.335 264.189 122.125 264.189 125.003C264.189 127.881 263.194 130.671 261.372 132.9C259.215 134.76 256.461 135.783 253.613 135.783C250.765 135.783 248.011 134.76 245.854 132.9C244.032 130.671 243.037 127.881 243.037 125.003C243.037 122.125 244.032 119.335 245.854 117.106C246.88 116.12 248.097 115.355 249.431 114.86C250.765 114.364 252.187 114.148 253.608 114.225ZM253.608 118.684C253.016 118.668 252.431 118.812 251.914 119.101C251.398 119.39 250.969 119.813 250.673 120.326C249.89 121.754 249.523 123.372 249.614 124.998C249.523 126.634 249.889 128.262 250.673 129.701C250.977 130.208 251.407 130.627 251.922 130.918C252.436 131.21 253.017 131.363 253.608 131.363C254.199 131.363 254.779 131.21 255.294 130.918C255.808 130.627 256.238 130.208 256.542 129.701C257.315 128.259 257.682 126.633 257.601 124.998C257.687 123.373 257.32 121.756 256.542 120.326C256.248 119.814 255.821 119.391 255.306 119.102C254.792 118.813 254.208 118.669 253.618 118.684H253.608ZM259.063 155.304H253.173L277.908 114.225H283.798L259.063 155.304ZM283.374 133.748C284.797 133.67 286.22 133.884 287.557 134.376C288.894 134.867 290.116 135.627 291.149 136.608C292.125 137.663 292.878 138.903 293.364 140.255C293.849 141.608 294.058 143.044 293.978 144.478C294.056 145.921 293.846 147.364 293.36 148.725C292.875 150.085 292.123 151.335 291.149 152.402C288.99 154.275 286.227 155.306 283.369 155.306C280.51 155.306 277.748 154.275 275.588 152.402C274.609 151.338 273.852 150.089 273.362 148.728C272.873 147.367 272.661 145.922 272.739 144.478C272.662 143.044 272.874 141.609 273.364 140.258C273.853 138.908 274.61 137.67 275.588 136.618C276.622 135.635 277.846 134.874 279.185 134.38C280.524 133.886 281.949 133.671 283.374 133.748ZM283.374 138.197C282.785 138.181 282.203 138.325 281.689 138.612C281.174 138.899 280.747 139.319 280.45 139.828C279.777 141.291 279.429 142.883 279.429 144.494C279.429 146.105 279.777 147.697 280.45 149.16C280.747 149.672 281.176 150.094 281.692 150.381C282.209 150.668 282.794 150.81 283.385 150.792C283.974 150.817 284.558 150.678 285.073 150.389C285.587 150.101 286.011 149.676 286.298 149.16C286.971 147.697 287.32 146.105 287.32 144.494C287.32 142.883 286.971 141.291 286.298 139.828C286.012 139.314 285.59 138.89 285.077 138.602C284.565 138.314 283.983 138.174 283.395 138.197" fill="#EED45C" fill-opacity="0.4"/>
<path d="M48.8762 298.819C48.5953 298.819 48.3258 298.707 48.1272 298.508C47.9285 298.31 47.8169 298.04 47.8169 297.759C47.8141 294.712 46.6023 291.79 44.4475 289.635C42.2926 287.481 39.3709 286.269 36.3235 286.266C36.0991 286.205 35.901 286.072 35.7597 285.887C35.6185 285.702 35.542 285.476 35.542 285.244C35.542 285.011 35.6185 284.785 35.7597 284.6C35.901 284.416 36.0991 284.283 36.3235 284.222C39.9141 284.224 43.357 285.651 45.8969 288.189C48.4368 290.727 49.8664 294.169 49.872 297.759C49.8725 298.03 49.7696 298.29 49.5845 298.487C49.3994 298.684 49.146 298.802 48.8762 298.819Z" fill="#EED45C" fill-opacity="0.4"/>
<path d="M40.2641 324.602L38.7175 324.337L41.7789 305.852L43.3255 306.117L40.2641 324.602Z" fill="#EED45C" fill-opacity="0.4"/>
<path d="M32.457 324.602L29.3957 306.117L30.9422 305.852L34.0036 324.337L32.457 324.602Z" fill="#EED45C" fill-opacity="0.4"/>
<path d="M42.4463 308.458C41.8001 308.458 41.5247 307.833 41.3234 307.399C41.2387 307.208 41.0586 306.806 40.9632 306.806C40.8679 306.806 40.6878 307.208 40.6031 307.399C40.4018 307.855 40.1158 308.458 39.4802 308.458C38.8446 308.458 38.5586 307.833 38.3574 307.399C38.2726 307.208 38.0925 306.806 37.9972 306.806C37.9019 306.806 37.7218 307.208 37.637 307.399C37.4358 307.855 37.1498 308.458 36.5142 308.458C35.8786 308.458 35.5926 307.833 35.3807 307.399C35.3066 307.208 35.1265 306.806 35.0311 306.806C34.9358 306.806 34.7557 307.208 34.6604 307.399C34.4697 307.855 34.1837 308.458 33.5375 308.458C32.8914 308.458 32.6265 307.833 32.4253 307.399C32.3299 307.208 32.1604 306.806 32.0545 306.806C31.9486 306.806 31.7791 307.208 31.6943 307.399C31.4931 307.855 31.2177 308.458 30.5715 308.458V307.622C30.6668 307.622 30.8469 307.23 30.9316 307.039C31.1329 306.573 31.4189 305.98 32.0545 305.98C32.6901 305.98 32.9761 306.594 33.1774 307.039C33.2727 307.23 33.4422 307.622 33.5375 307.622C33.6329 307.622 33.8235 307.23 33.9083 307.039C34.1095 306.583 34.385 305.98 35.0311 305.98C35.6773 305.98 35.9527 306.605 36.154 307.039C36.2387 307.23 36.4082 307.622 36.5142 307.622C36.6201 307.622 36.7896 307.23 36.8743 307.039C37.0756 306.583 37.351 305.98 37.9972 305.98C38.6434 305.98 38.9188 306.605 39.1201 307.039C39.2048 307.23 39.3849 307.622 39.4802 307.622C39.5756 307.622 39.7556 307.23 39.8404 307.039C40.0416 306.573 40.3171 305.98 40.9632 305.98C41.6094 305.98 41.8848 306.605 42.0861 307.039C42.1708 307.23 42.3403 307.622 42.4463 307.622V308.458Z" fill="#EED45C" fill-opacity="0.4"/>
<path d="M36.3553 275.101C36.0743 275.101 35.8049 274.989 35.6062 274.791C35.4076 274.592 35.296 274.323 35.296 274.042V263.321C35.3534 263.092 35.4857 262.889 35.6718 262.744C35.858 262.599 36.0874 262.52 36.3235 262.52C36.5596 262.52 36.789 262.599 36.9752 262.744C37.1613 262.889 37.2936 263.092 37.351 263.321V274.084C37.341 274.347 37.2334 274.597 37.0494 274.785C36.8653 274.973 36.6179 275.085 36.3553 275.101Z" fill="#EED45C" fill-opacity="0.4"/>
<path d="M48.6432 278.395C48.4644 278.396 48.2888 278.348 48.1347 278.258C47.9054 278.117 47.7383 277.894 47.6675 277.634C47.5966 277.374 47.6274 277.097 47.7534 276.859L53.1346 267.538C53.2756 267.308 53.4986 267.141 53.7583 267.07C54.0181 266.999 54.295 267.03 54.5329 267.156C54.7632 267.299 54.93 267.525 54.9989 267.787C55.0679 268.049 55.0338 268.327 54.9037 268.565L49.533 277.876C49.4411 278.031 49.3111 278.16 49.1554 278.251C48.9997 278.342 48.8234 278.392 48.6432 278.395Z" fill="#EED45C" fill-opacity="0.4"/>
<path d="M57.6473 287.389C57.467 287.385 57.2907 287.336 57.135 287.245C56.9793 287.154 56.8493 287.025 56.7574 286.87C56.6305 286.633 56.5981 286.357 56.667 286.097C56.7358 285.838 56.9007 285.614 57.1282 285.471L66.4501 280.09C66.688 279.964 66.9649 279.934 67.2246 280.004C67.4844 280.075 67.7074 280.242 67.8483 280.472C67.9753 280.708 68.0076 280.984 67.9388 281.244C67.87 281.503 67.7051 281.727 67.4776 281.87L58.1557 287.251C58.0017 287.342 57.826 287.389 57.6473 287.389Z" fill="#EED45C" fill-opacity="0.4"/>
<path d="M72.0326 299.677H60.9417C60.7855 299.716 60.6224 299.719 60.4649 299.686C60.3073 299.652 60.1595 299.583 60.0325 299.484C59.9055 299.385 59.8028 299.259 59.7322 299.114C59.6616 298.969 59.6249 298.81 59.6249 298.649C59.6249 298.488 59.6616 298.329 59.7322 298.185C59.8028 298.04 59.9055 297.913 60.0325 297.814C60.1595 297.715 60.3073 297.646 60.4649 297.613C60.6224 297.58 60.7855 297.583 60.9417 297.622H72.0326C72.2616 297.679 72.4649 297.811 72.6102 297.998C72.7555 298.184 72.8344 298.413 72.8344 298.649C72.8344 298.885 72.7555 299.115 72.6102 299.301C72.4649 299.487 72.2616 299.619 72.0326 299.677Z" fill="#EED45C" fill-opacity="0.4"/>
<path d="M66.9691 317.346C66.7901 317.348 66.6141 317.3 66.4607 317.208L57.1388 311.827C56.9113 311.684 56.7464 311.461 56.6776 311.201C56.6087 310.941 56.6411 310.665 56.768 310.429C56.9107 310.201 57.1344 310.036 57.394 309.967C57.6536 309.899 57.9297 309.931 58.1663 310.058L67.4882 315.429C67.6643 315.554 67.7977 315.731 67.8705 315.934C67.9433 316.138 67.9521 316.359 67.8955 316.568C67.839 316.777 67.72 316.963 67.5543 317.102C67.3887 317.241 67.1845 317.326 66.9691 317.346Z" fill="#EED45C" fill-opacity="0.4"/>
<path d="M24.0674 278.406C23.8871 278.402 23.7108 278.353 23.5551 278.262C23.3994 278.171 23.2694 278.042 23.1775 277.887L17.7963 268.576C17.6886 268.46 17.6083 268.322 17.561 268.171C17.5138 268.02 17.5009 267.86 17.5233 267.704C17.5458 267.547 17.6029 267.398 17.6906 267.266C17.7783 267.135 17.8943 267.025 18.0301 266.944C18.1659 266.863 18.3181 266.814 18.4755 266.799C18.6329 266.785 18.7916 266.806 18.9398 266.861C19.088 266.916 19.2221 267.003 19.3321 267.116C19.4422 267.23 19.5255 267.367 19.5759 267.516L24.9466 276.828C25.0767 277.065 25.1108 277.344 25.0418 277.606C24.9729 277.868 24.8061 278.094 24.5758 278.236C24.4237 278.336 24.2486 278.394 24.0674 278.406Z" fill="#EED45C" fill-opacity="0.4"/>
<path d="M15.0739 287.399C14.8919 287.399 14.7131 287.351 14.5548 287.262L5.29651 281.88C5.14422 281.832 5.00485 281.75 4.88884 281.64C4.77284 281.53 4.6832 281.395 4.62664 281.246C4.57008 281.096 4.54808 280.936 4.56226 280.777C4.57645 280.618 4.62646 280.464 4.70856 280.327C4.79065 280.19 4.9027 280.073 5.03632 279.985C5.16993 279.898 5.32165 279.841 5.4801 279.821C5.63855 279.8 5.79964 279.815 5.95129 279.866C6.10295 279.916 6.24124 280 6.35582 280.111L15.6671 285.493C15.839 285.619 15.9688 285.794 16.0396 285.995C16.1104 286.196 16.1189 286.414 16.064 286.62C16.009 286.826 15.8932 287.01 15.7317 287.149C15.5702 287.289 15.3705 287.376 15.1586 287.399H15.0739Z" fill="#EED45C" fill-opacity="0.4"/>
<path d="M11.7794 299.687H1.0593C0.900771 299.737 0.732885 299.748 0.569187 299.72C0.405489 299.693 0.250561 299.627 0.1169 299.529C-0.0167618 299.43 -0.125415 299.302 -0.200297 299.154C-0.275179 299.005 -0.314194 298.842 -0.314194 298.676C-0.314194 298.51 -0.275179 298.346 -0.200297 298.198C-0.125415 298.05 -0.0167618 297.921 0.1169 297.823C0.250561 297.724 0.405489 297.659 0.569187 297.631C0.732885 297.604 0.900771 297.615 1.0593 297.664H11.7794C11.9366 297.621 12.1014 297.615 12.2611 297.647C12.4209 297.678 12.5713 297.746 12.7006 297.845C12.83 297.944 12.9348 298.071 13.0069 298.217C13.079 298.363 13.1166 298.523 13.1166 298.686C13.1166 298.849 13.079 299.01 13.0069 299.156C12.9348 299.302 12.83 299.429 12.7006 299.528C12.5713 299.627 12.4209 299.694 12.2611 299.726C12.1014 299.757 11.9366 299.751 11.7794 299.709V299.687Z" fill="#EED45C" fill-opacity="0.4"/>
<path d="M5.76261 317.357C5.54992 317.335 5.34887 317.249 5.18589 317.11C5.02291 316.972 4.90562 316.787 4.84946 316.581C4.7933 316.375 4.80089 316.156 4.87122 315.954C4.94156 315.752 5.07136 315.577 5.24355 315.45L14.5654 310.069C14.68 309.957 14.8183 309.873 14.9699 309.823C15.1216 309.772 15.2827 309.757 15.4411 309.778C15.5996 309.798 15.7513 309.855 15.8849 309.942C16.0185 310.03 16.1306 310.147 16.2127 310.284C16.2948 310.421 16.3448 310.575 16.359 310.734C16.3732 310.893 16.3511 311.053 16.2946 311.203C16.238 311.352 16.1484 311.487 16.0324 311.597C15.9164 311.707 15.777 311.789 15.6247 311.838L6.30285 317.219C6.13956 317.315 5.95213 317.363 5.76261 317.357Z" fill="#EED45C" fill-opacity="0.4"/>
<path d="M45.4547 324.909H27.2347C27.0098 324.911 26.7869 324.868 26.5788 324.783C26.3706 324.698 26.1814 324.572 26.0219 324.414C25.8624 324.255 25.7358 324.067 25.6494 323.859C25.5631 323.651 25.5186 323.429 25.5186 323.204C25.5129 323.126 25.5129 323.048 25.5186 322.971C25.6139 321.753 25.5186 318.013 24.258 316.35C16.9594 306.944 16.7476 297.887 16.7476 297.791C16.7476 292.594 18.8123 287.609 22.4874 283.934C26.1626 280.259 31.1472 278.194 36.3447 278.194C41.5422 278.194 46.5268 280.259 50.2019 283.934C53.8771 287.609 55.9418 292.594 55.9418 297.791C55.9418 297.887 55.7405 306.944 48.4207 316.371C47.1178 318.087 47.0648 321.837 47.1284 322.907C47.1393 323.006 47.1393 323.105 47.1284 323.204C47.1285 323.651 46.9531 324.08 46.6401 324.399C46.3271 324.718 45.9015 324.901 45.4547 324.909ZM27.2347 321.488C26.825 321.486 26.4282 321.631 26.117 321.898C25.8057 322.164 25.6009 322.534 25.5398 322.939C25.6029 322.535 25.8084 322.166 26.1192 321.9C26.4299 321.634 26.8255 321.488 27.2347 321.488ZM45.7407 321.488C45.9756 321.529 46.1993 321.62 46.3975 321.753C46.1976 321.627 45.974 321.544 45.7407 321.509V321.488ZM28.9719 321.488H43.728C43.728 320.714 43.8234 320.068 43.8234 320.047C43.9278 317.993 44.5787 316.003 45.7089 314.285C52.2872 305.81 52.5308 297.876 52.5308 297.791C52.4229 293.574 50.6719 289.566 47.6511 286.622C44.6304 283.677 40.5789 282.03 36.3606 282.03C32.1422 282.03 28.0908 283.677 25.07 286.622C22.0493 289.566 20.2983 293.574 20.1903 297.791C20.1903 297.876 20.434 305.821 26.991 314.274C28.1393 315.992 28.7917 317.993 28.8766 320.058C28.8766 320.058 28.9402 320.725 28.9719 321.488Z" fill="#EED45C" fill-opacity="0.4"/>
<path d="M44.8721 328.575H27.8491C27.4186 328.541 27.0167 328.346 26.7236 328.029C26.4305 327.712 26.2677 327.296 26.2677 326.864C26.2677 326.432 26.4305 326.016 26.7236 325.699C27.0167 325.382 27.4186 325.187 27.8491 325.153H44.8721C45.3025 325.187 45.7044 325.382 45.9975 325.699C46.2906 326.016 46.4534 326.432 46.4534 326.864C46.4534 327.296 46.2906 327.712 45.9975 328.029C45.7044 328.346 45.3025 328.541 44.8721 328.575Z" fill="#EED45C" fill-opacity="0.4"/>
<path d="M43.6115 332.229H29.1096C28.6792 332.195 28.2773 332 27.9842 331.683C27.6911 331.366 27.5283 330.95 27.5283 330.518C27.5283 330.087 27.6911 329.671 27.9842 329.354C28.2773 329.036 28.6792 328.841 29.1096 328.808H43.6115C44.042 328.841 44.4438 329.036 44.7369 329.354C45.0301 329.671 45.1928 330.087 45.1928 330.518C45.1928 330.95 45.0301 331.366 44.7369 331.683C44.4438 332 44.042 332.195 43.6115 332.229Z" fill="#EED45C" fill-opacity="0.4"/>
<path d="M41.4823 335.799H31.2388C30.7865 335.799 30.3527 335.619 30.0329 335.299C29.713 334.98 29.5334 334.546 29.5334 334.094C29.5334 333.641 29.713 333.207 30.0329 332.888C30.3527 332.568 30.7865 332.388 31.2388 332.388H41.4823C41.9346 332.388 42.3684 332.568 42.6883 332.888C43.0081 333.207 43.1878 333.641 43.1878 334.094C43.1878 334.546 43.0081 334.98 42.6883 335.299C42.3684 335.619 41.9346 335.799 41.4823 335.799Z" fill="#EED45C" fill-opacity="0.4"/>
<path d="M687.392 350.481C684.855 347.946 681.624 346.22 678.106 345.521C674.589 344.823 670.943 345.183 667.63 346.556C664.317 347.929 661.485 350.253 659.493 353.235C657.501 356.217 656.438 359.723 656.438 363.309C656.438 366.895 657.501 370.401 659.493 373.383C661.485 376.365 664.317 378.69 667.63 380.063C670.943 381.436 674.589 381.795 678.106 381.097C681.624 380.398 684.855 378.672 687.392 376.137C690.793 372.734 692.704 368.12 692.704 363.309C692.704 358.498 690.793 353.884 687.392 350.481ZM664.945 372.928C663.043 371.025 661.748 368.602 661.224 365.963C660.699 363.325 660.969 360.59 661.998 358.105C663.028 355.62 664.771 353.496 667.008 352.001C669.244 350.507 671.874 349.709 674.564 349.709C677.254 349.709 679.884 350.507 682.12 352.001C684.357 353.496 686.1 355.62 687.13 358.105C688.159 360.59 688.429 363.325 687.904 365.963C687.38 368.602 686.084 371.025 684.182 372.928C681.63 375.476 678.171 376.908 674.564 376.908C670.957 376.908 667.498 375.476 664.945 372.928Z" fill="#EED45C" fill-opacity="0.4"/>
<path d="M646.545 398.298C645.616 399.225 644.357 399.745 643.044 399.745C641.732 399.745 640.473 399.225 639.543 398.298C638.616 397.368 638.096 396.109 638.096 394.797C638.096 393.484 638.616 392.225 639.543 391.296L653.124 377.726C653.583 377.266 654.129 376.901 654.73 376.652C655.33 376.402 655.974 376.274 656.625 376.274C657.275 376.274 657.919 376.402 658.52 376.652C659.12 376.901 659.666 377.266 660.126 377.726C661.052 378.654 661.572 379.911 661.572 381.222C661.572 382.533 661.052 383.79 660.126 384.718L646.545 398.298Z" fill="#EED45C" fill-opacity="0.4"/>
<path d="M654.903 385.406C654.578 385.726 654.141 385.905 653.685 385.905C653.229 385.905 652.792 385.726 652.467 385.406C652.145 385.084 651.965 384.648 651.965 384.193C651.965 383.738 652.145 383.302 652.467 382.98L662.34 373.097C662.665 372.777 663.102 372.598 663.558 372.598C664.014 372.598 664.451 372.777 664.776 373.097C665.096 373.422 665.275 373.859 665.275 374.315C665.275 374.771 665.096 375.208 664.776 375.533L654.903 385.406Z" fill="#EED45C" fill-opacity="0.4"/>
<path d="M681.608 356.265C683.837 358.481 685.15 361.456 685.285 364.596C685.421 367.737 684.369 370.813 682.339 373.214C682.624 372.984 682.896 372.74 683.155 372.483C685.489 370.129 686.795 366.947 686.788 363.632C686.781 360.318 685.462 357.141 683.118 354.797C680.774 352.454 677.597 351.134 674.283 351.127C670.968 351.12 667.786 352.427 665.433 354.76C665.179 355.025 664.935 355.301 664.702 355.576C667.095 353.555 670.159 352.505 673.289 352.632C676.419 352.76 679.387 354.056 681.608 356.265Z" fill="#EED45C" fill-opacity="0.4"/>
<path d="M292.728 261.997L294.168 253.258L327.399 230.208L358.193 274.603" stroke="#EED45B" stroke-width="3.3474" stroke-linecap="round" stroke-linejoin="round"/>
<path d="M293.893 261.192L295.143 253.873L327.134 231.691L357.366 275.27L357.652 281.266" stroke="#EED45B" stroke-width="3.3474" stroke-linecap="round" stroke-linejoin="round"/>
<path d="M327.54 237.815L292.725 261.967L324.123 307.227L358.938 283.075L327.54 237.815Z" stroke="#EED45B" stroke-width="3.3474" stroke-linecap="round" stroke-linejoin="round"/>
<path d="M302.442 262.993L325.937 246.69" stroke="#EED45B" stroke-width="3.3474" stroke-linecap="round" stroke-linejoin="round"/>
<path d="M306.859 263.798L323.405 252.326" stroke="#EED45B" stroke-width="3.3474" stroke-linecap="round" stroke-linejoin="round"/>
<path d="M326.594 297.812L350.089 281.51" stroke="#EED45B" stroke-width="3.3474" stroke-linecap="round" stroke-linejoin="round"/>
<path d="M331.756 257.301L309.171 273L319.436 287.766L342.02 272.067L331.756 257.301Z" stroke="#EED45B" stroke-width="3.34287" stroke-linecap="round" stroke-linejoin="round"/>
<path d="M625.2 447.026V441.358H620.751C620.512 439.558 620.042 437.796 619.353 436.115L623.241 433.869L620.402 428.965L616.514 431.189C615.409 429.753 614.124 428.464 612.69 427.354L614.936 423.456L610.021 420.628L607.786 424.505C606.088 423.815 604.307 423.349 602.489 423.117V418.626H596.811V423.117C595.011 423.354 593.249 423.82 591.568 424.505L589.333 420.628L584.417 423.456L586.674 427.354C585.236 428.463 583.948 429.752 582.839 431.189L578.941 428.943L576.112 433.848L579.989 436.094C579.304 437.775 578.838 439.537 578.602 441.337H574.142V447.026H578.644C578.88 448.826 579.346 450.588 580.032 452.269L576.155 454.515L578.983 459.42L582.881 457.174C583.993 458.609 585.281 459.897 586.716 461.009L584.47 464.896L589.375 467.735L591.621 463.858C593.302 464.543 595.064 465.01 596.864 465.246V469.737H602.531V465.246C604.349 465.014 606.13 464.548 607.828 463.858L610.063 467.735L614.978 464.896L612.732 461.009C614.165 459.894 615.453 458.606 616.567 457.174L620.455 459.42L623.294 454.504L619.417 452.269C620.08 450.584 620.528 448.823 620.751 447.026H625.2ZM586.79 444.187C586.792 441.644 587.548 439.159 588.963 437.045C590.377 434.932 592.386 433.285 594.736 432.313C597.086 431.342 599.672 431.088 602.165 431.586C604.659 432.083 606.95 433.309 608.747 435.108C610.545 436.907 611.768 439.198 612.264 441.692C612.759 444.187 612.504 446.772 611.53 449.121C610.556 451.47 608.908 453.478 606.794 454.891C604.679 456.303 602.193 457.057 599.65 457.057C597.959 457.057 596.284 456.724 594.721 456.075C593.159 455.427 591.74 454.477 590.546 453.28C589.351 452.082 588.404 450.661 587.76 449.097C587.116 447.533 586.786 445.857 586.79 444.166V444.187Z" stroke="#EED45B" stroke-width="3.00842" stroke-linecap="round" stroke-linejoin="round"/>
<path d="M402.08 349.57V333.394C402.08 333.253 402.049 333.112 401.987 332.985C401.926 332.857 401.836 332.745 401.725 332.657C401.613 332.569 401.484 332.508 401.345 332.478C401.206 332.448 401.063 332.449 400.925 332.483L387.154 335.831C386.952 335.88 386.773 335.996 386.644 336.159C386.516 336.322 386.445 336.523 386.444 336.731V351.095C386.228 351.052 386.008 351.031 385.787 351.032C384.949 351.053 384.125 351.255 383.372 351.625C381.508 352.515 379.696 354.39 380.014 356.138C380.143 356.681 380.466 357.159 380.922 357.481C381.379 357.803 381.938 357.947 382.493 357.885C383.333 357.863 384.157 357.657 384.908 357.282C386.72 356.434 388.478 354.644 388.287 352.938V341.795L400.194 338.903V347.748C399.977 347.71 399.757 347.689 399.537 347.684C398.698 347.71 397.874 347.916 397.122 348.288C395.247 349.167 393.436 351.042 393.764 352.79C393.893 353.334 394.216 353.812 394.672 354.134C395.129 354.456 395.687 354.6 396.243 354.538C397.083 354.519 397.908 354.313 398.658 353.934C400.512 353.087 402.27 351.297 402.08 349.57Z" fill="#EED45C" fill-opacity="0.4"/>
<path d="M505.775 98.0385V81.8311C505.776 81.6893 505.744 81.5491 505.683 81.4213C505.621 81.2935 505.531 81.1814 505.42 81.0935C505.309 81.0057 505.179 80.9444 505.04 80.9144C504.901 80.8843 504.758 80.8863 504.62 80.9201L490.849 84.2675C490.647 84.3192 490.467 84.4367 490.338 84.6016C490.21 84.7665 490.14 84.9695 490.139 85.1785V99.5744C489.922 99.5365 489.703 99.5153 489.483 99.5109C488.643 99.5361 487.82 99.7421 487.067 100.115C485.203 100.994 483.392 102.879 483.709 104.627C483.84 105.169 484.164 105.645 484.62 105.964C485.077 106.284 485.634 106.427 486.188 106.365C487.026 106.341 487.85 106.138 488.603 105.771C490.415 104.913 492.173 103.123 491.983 101.418V90.2314L503.879 87.3395V96.1953C503.666 96.1479 503.45 96.1231 503.232 96.1211C502.393 96.1464 501.569 96.3523 500.817 96.7249C498.942 97.6041 497.131 99.4897 497.459 101.238C497.591 101.789 497.923 102.273 498.39 102.594C498.858 102.915 499.429 103.051 499.991 102.975C500.829 102.955 501.654 102.752 502.406 102.382C504.228 101.524 505.965 99.7333 505.775 98.0385Z" fill="#EED45C" fill-opacity="0.4"/>
<path d="M453.879 311.541L447.619 315.058L444.293 309.136L441.316 310.81L444.653 316.732L438.721 320.068L440.395 323.045L446.327 319.708L449.844 325.958L452.82 324.284L449.303 318.034L455.553 314.518L453.879 311.541Z" fill="#EED45C" fill-opacity="0.4"/>
<path d="M115.676 329.337L109.426 332.865L106.089 326.933L103.113 328.606L106.449 334.538L100.517 337.865L102.191 340.841L108.123 337.515L111.64 343.765L114.617 342.091L111.1 335.841L117.35 332.314L115.676 329.337Z" fill="#EED45C" fill-opacity="0.4"/>
<path d="M566.219 606.493L559.969 610.021L556.642 604.089L553.655 605.762L556.992 611.694L551.07 615.021L552.744 617.997L558.666 614.66L562.193 620.921L565.159 619.247L561.642 612.987L567.903 609.47L566.219 606.493Z" fill="#EED45C" fill-opacity="0.4"/>
<path d="M547.098 2.40462L540.848 5.9215L537.511 0L534.535 1.6737L537.872 7.5952L531.95 10.932L533.624 13.9086L539.545 10.5718L543.062 16.8323L546.039 15.1586L542.522 8.89814L548.772 5.38126L547.098 2.40462Z" fill="#EED45C" fill-opacity="0.4"/>
<path d="M36.8425 138.822L46.6941 138.843L55.7405 169.976L59.5222 116.301L124.553 116.449" stroke="#EED45B" stroke-width="5.0105" stroke-linecap="round" stroke-linejoin="round"/>
<path d="M620.179 188.079L615.264 190.113L611.324 183.757C611.264 183.663 611.187 183.582 611.096 183.519C611.005 183.455 610.902 183.41 610.794 183.386C610.684 183.364 610.571 183.365 610.462 183.388C610.352 183.412 610.249 183.458 610.158 183.524L608.516 184.668L601.038 176.692C600.954 176.599 600.849 176.526 600.733 176.48C600.616 176.433 600.49 176.415 600.365 176.425C600.24 176.435 600.119 176.474 600.012 176.539C599.904 176.603 599.813 176.692 599.745 176.798L598.824 178.206L589.799 172.91C589.689 172.841 589.564 172.801 589.434 172.791C589.305 172.782 589.176 172.805 589.057 172.857C588.936 172.908 588.83 172.988 588.746 173.089C588.663 173.191 588.606 173.311 588.58 173.44L583.432 196.321L583.146 172.857C583.147 172.722 583.114 172.589 583.049 172.47C582.984 172.351 582.89 172.251 582.775 172.179C582.664 172.105 582.536 172.06 582.403 172.047C582.27 172.034 582.136 172.054 582.013 172.105L572.543 175.982L571.886 174.308C571.839 174.196 571.77 174.095 571.682 174.011C571.595 173.928 571.491 173.863 571.377 173.821C571.263 173.784 571.143 173.773 571.024 173.788C570.905 173.802 570.791 173.843 570.689 173.906L561.717 179.361L560.572 178.122C560.437 177.982 560.256 177.895 560.062 177.875C559.868 177.856 559.674 177.906 559.513 178.016L551.388 183.927C551.299 183.992 551.224 184.074 551.168 184.169C551.111 184.263 551.075 184.368 551.06 184.478L547.988 182.645L546.833 227.951L576.494 248.226L615.095 232.983L620.179 188.079ZM600.551 178.545L607.15 185.59L586.441 200.018L600.551 178.545ZM597.923 179.552L584.153 200.473L589.915 174.838L597.923 179.552ZM581.557 174.065L581.875 199.732L573.178 177.486L581.557 174.065ZM570.71 175.844L571.314 177.391L579.672 198.768L562.861 180.601L570.71 175.844ZM552.331 185.272L559.863 179.795L580.456 202.041L552.331 185.272ZM586.504 202.062L610.391 185.378L613.728 190.749L586.504 202.062Z" fill="#EED45C" fill-opacity="0.4"/>
<path d="M167.19 526.94L165.876 531.558L159.171 530.785C159.071 530.773 158.969 530.782 158.872 530.811C158.776 530.84 158.686 530.889 158.609 530.954C158.531 531.017 158.467 531.096 158.421 531.185C158.376 531.275 158.349 531.373 158.345 531.473L158.239 533.285L148.387 534.1C148.276 534.109 148.169 534.143 148.073 534.2C147.978 534.257 147.897 534.335 147.836 534.429C147.774 534.523 147.734 534.63 147.717 534.741C147.701 534.853 147.709 534.967 147.741 535.075L148.218 536.516L139.383 539.916C139.273 539.957 139.175 540.024 139.095 540.11C139.016 540.197 138.959 540.301 138.928 540.414C138.9 540.527 138.9 540.646 138.925 540.76C138.951 540.873 139.003 540.98 139.076 541.071L152.391 557.553L135.591 544.588C135.494 544.515 135.38 544.466 135.261 544.446C135.141 544.426 135.018 544.434 134.902 544.471C134.786 544.509 134.682 544.575 134.598 544.664C134.515 544.753 134.455 544.861 134.426 544.979L131.851 553.856L130.294 553.38C130.19 553.351 130.08 553.343 129.973 553.357C129.865 553.372 129.762 553.408 129.669 553.464C129.579 553.525 129.502 553.605 129.446 553.698C129.389 553.792 129.353 553.896 129.341 554.005L128.176 563.411L126.65 563.528C126.469 563.543 126.3 563.623 126.173 563.754C126.046 563.884 125.971 564.056 125.962 564.238L125.58 573.305C125.578 573.509 125.653 573.706 125.792 573.856L122.773 575L154.192 601.25L185.219 591.599L196.098 555.71L167.19 526.94ZM149.457 535.499L158.143 534.778L156.777 557.543L149.457 535.499ZM148.684 537.925L155.781 559.397L140.887 540.933L148.684 537.925ZM135.57 546.399L153.917 560.572L133.292 554.217L135.57 546.399ZM130.729 555.075L132.169 555.509L151.999 561.589L129.701 563.295L130.729 555.075ZM127.116 573.369L127.466 564.969L154.764 562.85L127.116 573.369ZM158.186 558.602L159.806 532.353L165.484 533.009L158.186 558.602Z" fill="#EED45C" fill-opacity="0.4"/>
<path d="M184.944 17.8916L180.495 20.4128L175.495 15.254C175.419 15.173 175.327 15.1086 175.225 15.0648C175.123 15.0211 175.013 14.9989 174.901 14.9997C174.685 14.9886 174.473 15.0606 174.308 15.201L172.899 16.4616L164.128 10.3282C164.029 10.2546 163.915 10.2039 163.794 10.1801C163.673 10.1563 163.549 10.1598 163.429 10.1905C163.313 10.2121 163.204 10.2607 163.11 10.3325C163.016 10.4043 162.94 10.4972 162.889 10.6036L162.232 12.0019L152.434 8.47444C152.313 8.43157 152.184 8.41506 152.056 8.42602C151.928 8.43698 151.804 8.47516 151.692 8.53799C151.587 8.59524 151.498 8.67913 151.434 8.78134C151.371 8.88355 151.336 9.00051 151.332 9.12061L150.421 30.4444L145.898 9.35366C145.868 9.2278 145.808 9.11106 145.723 9.01333C145.638 8.9156 145.531 8.83976 145.41 8.79223C145.292 8.73496 145.161 8.70522 145.029 8.70522C144.897 8.70522 144.767 8.73496 144.648 8.79223L136.067 13.6121L135.125 12.1926C135.057 12.0962 134.971 12.0146 134.87 11.9527C134.77 11.8907 134.659 11.8498 134.542 11.8324C134.425 11.811 134.305 11.8151 134.19 11.8443C134.075 11.8736 133.967 11.9273 133.875 12.0019L126.057 18.2094L124.701 17.2561C124.543 17.1463 124.353 17.0929 124.16 17.1044C123.968 17.116 123.786 17.1917 123.642 17.3196L116.746 23.7708C116.665 23.8451 116.602 23.9376 116.563 24.0407C116.525 24.1438 116.511 24.2546 116.523 24.364L113.176 23.1458L120.231 64.109L153.006 78.2083L188.09 59.0667L184.944 17.8916ZM163.991 12.0973L171.734 17.5103L154.044 33.3998L163.991 12.0973ZM161.597 13.3684L151.904 34.1413L152.963 10.2435L161.597 13.3684ZM144.521 10.6884L149.468 33.76L136.936 14.9468L144.521 10.6884ZM134.245 13.7604L135.114 15.0739L147.158 33.1668L127.413 19.1628L134.245 13.7604ZM117.932 24.8301L124.288 18.845L148.525 36.0163L117.932 24.8301ZM154.468 35.1689L174.859 16.8323L179.096 21.2073L154.468 35.1689Z" fill="#EED45C" fill-opacity="0.4"/>
</g>
<defs>
<radialGradient id="paint0_radial" cx="0" cy="0" r="1" gradientUnits="userSpaceOnUse" gradientTransform="translate(349.739 670.308) scale(173.948 22.6133)">
<stop stop-color="#231F20"/>
<stop offset="0.06" stop-color="#231F20" stop-opacity="0.86"/>
<stop offset="0.33" stop-color="#231F20" stop-opacity="0.38"/>
<stop offset="0.63" stop-color="#231F20" stop-opacity="0.09"/>
<stop offset="1" stop-color="#231F20" stop-opacity="0"/>
</radialGradient>
<clipPath id="clip0">
<rect width="703.494" height="697" fill="white"/>
</clipPath>
</defs>
</svg>
