<svg width="50" height="50" viewBox="0 0 50 50" fill="none" xmlns="http://www.w3.org/2000/svg">
<g clip-path="url(#clip0)">
<path d="M36.0938 22.9136L26.3045 22.9131C25.8722 22.9131 25.5218 23.2634 25.5218 23.6957V26.823C25.5218 27.2552 25.8722 27.6056 26.3044 27.6056H31.8172C31.2135 29.1722 30.0869 30.4842 28.6494 31.3178L31 35.387C34.7707 33.2062 37 29.3799 37 25.0965C37 24.4866 36.9551 24.0506 36.8652 23.5597C36.7968 23.1867 36.473 22.9136 36.0938 22.9136Z" fill="#167EE6"/>
<path d="M25 32.3043C22.3021 32.3043 19.9469 30.8303 18.682 28.6491L14.613 30.9944C16.6837 34.5833 20.5628 37 25 37C27.1767 37 29.2306 36.4139 31 35.3926V35.387L28.6493 31.3178C27.5741 31.9414 26.3299 32.3043 25 32.3043Z" fill="#12B347"/>
<path d="M31 35.3926V35.387L28.6494 31.3178C27.5741 31.9413 26.33 32.3043 25 32.3043V37C27.1767 37 29.2308 36.4139 31 35.3926Z" fill="#0F993E"/>
<path d="M17.6957 25C17.6957 23.6702 18.0586 22.4261 18.682 21.3509L14.613 19.0056C13.586 20.7693 13 22.8177 13 25C13 27.1823 13.586 29.2306 14.613 30.9944L18.682 28.6491C18.0586 27.5739 17.6957 26.3298 17.6957 25Z" fill="#FFD500"/>
<path d="M25 17.6957C26.7592 17.6957 28.3752 18.3208 29.6374 19.3606C29.9488 19.6171 30.4014 19.5986 30.6866 19.3134L32.9024 17.0976C33.226 16.774 33.2029 16.2442 32.8572 15.9443C30.7425 14.1097 27.9909 13 25 13C20.5628 13 16.6837 15.4167 14.613 19.0056L18.682 21.3509C19.9469 19.1697 22.3021 17.6957 25 17.6957Z" fill="#FF4B26"/>
<path d="M29.6374 19.3606C29.9488 19.6171 30.4015 19.5986 30.6867 19.3134L32.9024 17.0976C33.226 16.774 33.203 16.2442 32.8573 15.9443C30.7425 14.1096 27.991 13 25 13V17.6957C26.7592 17.6957 28.3752 18.3208 29.6374 19.3606Z" fill="#D93F21"/>
</g>
<circle cx="25" cy="25" r="24.5" stroke="#3908E4"/>
<defs>
<clipPath id="clip0">
<rect width="24" height="24" fill="white" transform="translate(13 13)"/>
</clipPath>
</defs>
</svg>
