<svg width="38" height="34" viewBox="0 0 38 34" fill="none" xmlns="http://www.w3.org/2000/svg">
<rect width="37.4428" height="32.9906" transform="translate(0.228882 0.181305)" fill="white"/>
<path d="M29.6717 11.957C29.6717 12.2178 29.4584 12.429 29.1952 12.429H8.70538C8.44212 12.429 8.22888 12.2178 8.22888 11.957V8.65327C8.22888 8.39251 8.44212 8.1813 8.70538 8.1813H29.1952C29.4584 8.1813 29.6717 8.39251 29.6717 8.65327V11.957Z" fill="#42366D"/>
<path d="M29.6717 18.3286C29.6717 18.5894 29.4584 18.8006 29.1952 18.8006H8.70538C8.44212 18.8006 8.22888 18.5894 8.22888 18.3286V15.0246C8.22888 14.7639 8.44212 14.5526 8.70538 14.5526H29.1952C29.4584 14.5526 29.6717 14.7639 29.6717 15.0246V18.3286Z" fill="#42366D"/>
<path d="M29.6717 24.7C29.6717 24.9607 29.4584 25.1719 29.1952 25.1719H8.70538C8.44212 25.1719 8.22888 24.9607 8.22888 24.7V21.3962C8.22888 21.1355 8.44212 20.9243 8.70538 20.9243H29.1952C29.4584 20.9243 29.6717 21.1355 29.6717 21.3962V24.7Z" fill="#42366D"/>
</svg>
