<svg width="40" height="40" viewBox="0 0 40 40" fill="none" xmlns="http://www.w3.org/2000/svg">
<rect width="40" height="40" rx="3" fill="#42366D"/>
<path d="M25.4499 20.46C26.6174 19.0225 27.1677 17.1809 26.9803 15.3385C26.7929 13.496 25.883 11.803 24.4499 10.63C23.6288 9.97199 22.6716 9.50497 21.6477 9.26282C20.6237 9.02067 19.5587 9.00946 18.5299 9.23001C17.3748 9.4855 16.3032 10.0296 15.4153 10.8115C14.5275 11.5934 13.8523 12.5875 13.4528 13.7011C13.0533 14.8147 12.9426 16.0113 13.1309 17.1793C13.3193 18.3473 13.8006 19.4485 14.5299 20.38C15.1946 21.1887 15.5742 22.1939 15.6099 23.24V23.53C15.2294 23.8976 15.01 24.401 14.9999 24.93V26.93C14.9999 27.4604 15.2106 27.9691 15.5857 28.3442C15.9608 28.7193 16.4695 28.93 16.9999 28.93V29.93C16.9999 30.1952 17.1053 30.4496 17.2928 30.6371C17.4803 30.8246 17.7347 30.93 17.9999 30.93C18.2651 30.93 18.5195 30.8246 18.707 30.6371C18.8945 30.4496 18.9999 30.1952 18.9999 29.93V28.93H20.9999V29.93C20.9999 30.1952 21.1053 30.4496 21.2928 30.6371C21.4803 30.8246 21.7347 30.93 21.9999 30.93C22.2651 30.93 22.5195 30.8246 22.707 30.6371C22.8945 30.4496 22.9999 30.1952 22.9999 29.93V28.93C23.5303 28.93 24.039 28.7193 24.4141 28.3442C24.7892 27.9691 24.9999 27.4604 24.9999 26.93V24.93C25.0004 24.4067 24.7957 23.9041 24.4299 23.53V23.1C24.4591 22.1295 24.819 21.198 25.4499 20.46ZM16.9999 26.93V24.93H22.9999V26.93H16.9999ZM23.8899 19.21C23.0047 20.2541 22.4912 21.5625 22.4299 22.93H17.5599C17.4656 21.5446 16.9412 20.2231 16.0599 19.15C15.5305 18.4856 15.1791 17.6973 15.0389 16.8595C14.8986 16.0217 14.9742 15.1619 15.2584 14.3614C15.5426 13.5608 16.026 12.8459 16.6632 12.284C17.3003 11.7221 18.0701 11.3319 18.8999 11.15C19.6351 10.9842 20.3983 10.9867 21.1324 11.1574C21.8664 11.328 22.5525 11.6624 23.1391 12.1356C23.7257 12.6088 24.1978 13.2084 24.52 13.8897C24.8423 14.571 25.0063 15.3164 24.9999 16.07C25.0062 17.2139 24.6137 18.3242 23.8899 19.21Z" fill="white"/>
</svg>
