<svg width="19" height="24" viewBox="0 0 19 24" fill="none" xmlns="http://www.w3.org/2000/svg">
<path d="M19 8.24125C18.9876 8.13216 18.9637 8.02469 18.9288 7.92063V7.81375C18.8717 7.69165 18.7955 7.57942 18.7031 7.48125L11.5781 0.35625C11.48 0.263882 11.3677 0.187721 11.2456 0.130625H11.1388C11.0181 0.0614427 10.8849 0.0170337 10.7469 0H3.5625C2.61767 0 1.71153 0.375334 1.04343 1.04343C0.375334 1.71153 0 2.61767 0 3.5625V20.1875C0 21.1323 0.375334 22.0385 1.04343 22.7066C1.71153 23.3747 2.61767 23.75 3.5625 23.75H15.4375C16.3823 23.75 17.2885 23.3747 17.9566 22.7066C18.6247 22.0385 19 21.1323 19 20.1875V8.3125C19 8.3125 19 8.3125 19 8.24125ZM11.875 4.04938L14.9506 7.125H13.0625C12.7476 7.125 12.4455 6.99989 12.2228 6.77719C12.0001 6.55449 11.875 6.25245 11.875 5.9375V4.04938ZM16.625 20.1875C16.625 20.5024 16.4999 20.8045 16.2772 21.0272C16.0545 21.2499 15.7524 21.375 15.4375 21.375H3.5625C3.24756 21.375 2.94551 21.2499 2.72281 21.0272C2.50011 20.8045 2.375 20.5024 2.375 20.1875V3.5625C2.375 3.24756 2.50011 2.94551 2.72281 2.72281C2.94551 2.50011 3.24756 2.375 3.5625 2.375H9.5V5.9375C9.5 6.88234 9.87533 7.78847 10.5434 8.45657C11.2115 9.12467 12.1177 9.5 13.0625 9.5H16.625V20.1875Z" fill="#312B39"/>
</svg>
