<svg width="948" height="721" viewBox="0 0 948 721" fill="none" xmlns="http://www.w3.org/2000/svg">
<path d="M164.88 232C212.387 60.2535 55.9677 38.8333 14 3H489H983.505C927.5 3 941.5 17 941.5 171C941.5 343.006 965.932 433.5 838.5 495C626.768 597.184 698.566 716 602.737 716C452.256 716 523.219 405 392.219 396C228.596 384.759 101.673 460.5 164.88 232Z" fill="#FAEED4"/>
<path d="M14 0.5H7.22195L12.3767 4.90125C17.8365 9.56304 25.0673 13.9197 33.3094 18.2921C39.5428 21.599 46.4549 24.9657 53.7196 28.5041C56.0664 29.6472 58.4499 30.8081 60.8592 31.9908C80.6714 41.7159 102.447 53.0147 121.414 68.4706C140.35 83.9015 156.415 103.422 164.87 129.571C173.326 155.725 174.248 188.754 162.47 231.333C146.654 288.513 142.577 327.135 148.286 352.982C151.157 365.983 156.52 375.832 164.164 383.148C171.791 390.448 181.524 395.068 192.884 397.898C215.469 403.525 245.115 402.204 278.924 400.261C281.207 400.13 283.51 399.996 285.833 399.861C318.065 397.982 354.067 395.885 392.048 398.494C423.511 400.656 443.021 420.842 456.949 450.849C469.862 478.67 477.72 514.406 485.742 550.884C486.403 553.891 487.065 556.902 487.732 559.915C496.438 599.283 505.834 638.817 522.605 668.496C531.013 683.376 541.338 695.898 554.468 704.696C567.625 713.513 583.467 718.5 602.737 718.5C614.971 718.5 624.701 716.604 632.727 712.973C640.773 709.332 646.96 704.013 652.19 697.387C657.393 690.796 661.658 682.898 665.873 674.097C667.807 670.059 669.745 665.799 671.76 661.369L672.313 660.151C674.532 655.275 676.858 650.187 679.406 644.905C699.687 602.874 734.289 548.069 839.587 497.252C871.688 481.759 894.393 464.359 910.317 444.166C926.251 423.961 935.276 401.109 940.243 374.905C945.202 348.745 946.126 319.18 945.826 285.519C945.703 271.717 945.376 257.269 945.032 242.073C944.534 220.057 944 196.47 944 171C944 140.71 943.459 115.82 943.015 95.4132C942.894 89.8611 942.781 84.6407 942.687 79.7337C942.249 56.7073 942.26 40.7505 943.971 29.6302C945.672 18.5784 948.955 12.9372 954.547 9.76886C960.455 6.42129 969.422 5.5 983.505 5.5V3V0.5H489H14Z" stroke="#42366D" stroke-opacity="0.1" stroke-width="5"/>
</svg>
