<svg width="948" height="721" viewBox="0 0 948 721" fill="none" xmlns="http://www.w3.org/2000/svg">
<path d="M164.88 232C212.387 60.2535 55.9677 38.8333 14 3H983.505C927.5 3 943.5 27 943.5 181C943.5 353.006 965.932 433.5 838.5 495C626.768 597.184 698.566 716 602.737 716C452.256 716 523.219 405 392.219 396C228.596 384.759 101.673 460.5 164.88 232Z" fill="#FAEED4"/>
<path d="M14 0.5H7.22195L12.3767 4.90125C17.8365 9.56304 25.0673 13.9197 33.3094 18.2921C39.5428 21.599 46.4549 24.9657 53.7196 28.5041C56.0664 29.6472 58.4499 30.8081 60.8592 31.9908C80.6714 41.7159 102.447 53.0147 121.414 68.4706C140.35 83.9015 156.415 103.422 164.87 129.571C173.326 155.725 174.248 188.754 162.47 231.333C146.654 288.513 142.577 327.135 148.286 352.982C151.157 365.983 156.52 375.832 164.164 383.148C171.791 390.448 181.524 395.068 192.884 397.898C215.469 403.525 245.115 402.204 278.924 400.261C281.207 400.13 283.51 399.996 285.833 399.861C318.065 397.982 354.067 395.885 392.048 398.494C423.511 400.656 443.021 420.842 456.949 450.849C469.862 478.67 477.72 514.406 485.742 550.884C486.403 553.891 487.065 556.902 487.732 559.915C496.438 599.283 505.834 638.817 522.605 668.496C531.013 683.376 541.338 695.898 554.468 704.696C567.625 713.513 583.467 718.5 602.737 718.5C614.971 718.5 624.701 716.604 632.727 712.973C640.773 709.332 646.96 704.013 652.19 697.387C657.393 690.796 661.658 682.898 665.873 674.097C667.807 670.059 669.745 665.799 671.76 661.369L672.313 660.151C674.532 655.275 676.858 650.187 679.406 644.905C699.687 602.874 734.289 548.069 839.587 497.252C871.656 481.775 894.472 465.019 910.583 445.786C926.713 426.53 936.007 404.928 941.234 379.952C946.451 355.026 947.626 326.698 947.514 293.971C947.464 279.497 947.162 264.127 946.841 247.788C946.799 245.644 946.757 243.483 946.715 241.306C946.35 222.525 946 202.475 946 181C946 147.843 945.259 120.7 944.654 98.551C944.556 94.955 944.461 91.4906 944.374 88.1534C943.748 64.1928 943.509 46.9533 944.983 34.545C946.458 22.1305 949.584 15.2047 955.101 11.1752C960.767 7.03782 969.52 5.5 983.505 5.5V3V0.5H14Z" stroke="#42366D" stroke-opacity="0.1" stroke-width="5"/>
</svg>
