<svg width="954" height="718" viewBox="0 0 954 718" fill="none" xmlns="http://www.w3.org/2000/svg">
<path d="M164.88 229C212.387 57.2535 55.9677 35.8333 14 0H983.505C969 51.5 963.223 39.8 962 185C960.471 366.5 1322 362.04 856.072 508.5C631.792 579 698.566 713 602.737 713C452.256 713 523.219 402 392.219 393C228.596 381.759 101.673 457.5 164.88 229Z" fill="#FAEED4"/>
<path d="M14 -2.5H7.22195L12.3767 1.90125C17.8365 6.56304 25.0673 10.9197 33.3094 15.2921C39.5428 18.599 46.4549 21.9657 53.7196 25.5041C56.0664 26.6472 58.4499 27.8081 60.8592 28.9908C80.6714 38.7159 102.447 50.0147 121.414 65.4706C140.35 80.9015 156.415 100.422 164.87 126.571C173.326 152.725 174.248 185.754 162.47 228.333C146.654 285.513 142.577 324.135 148.286 349.982C151.157 362.983 156.52 372.832 164.164 380.148C171.791 387.448 181.524 392.068 192.884 394.898C215.469 400.525 245.115 399.204 278.924 397.261C281.207 397.13 283.51 396.996 285.833 396.861C318.065 394.982 354.067 392.885 392.048 395.494C423.511 397.656 443.021 417.842 456.949 447.849C469.862 475.67 477.72 511.406 485.742 547.884C486.403 550.891 487.065 553.902 487.732 556.915C496.438 596.283 505.834 635.817 522.605 665.496C531.013 680.376 541.338 692.898 554.468 701.696C567.625 710.513 583.467 715.5 602.737 715.5C615.012 715.5 624.841 713.353 633.034 709.351C641.232 705.347 647.641 699.559 653.176 692.504C658.689 685.477 663.369 677.147 668.09 668.034C669.661 664.999 671.235 661.885 672.846 658.694C676.11 652.231 679.533 645.455 683.425 638.394C694.99 617.41 710.485 594.328 736.953 572.11C763.434 549.883 801.005 528.43 856.822 510.885C973.256 474.285 1038.41 447.001 1070.44 423.711C1086.47 412.061 1094.66 401.085 1096.41 390.027C1098.17 378.915 1093.29 368.507 1085.14 358.327C1076.98 348.146 1065.18 337.752 1052.3 326.61C1051.36 325.801 1050.42 324.987 1049.48 324.169C1037.32 313.665 1024.28 302.402 1012.13 289.787C985.94 262.614 964.125 229.462 964.5 185.021C965.112 112.397 966.864 79.2029 970.241 57.7513C972.438 43.7962 975.289 34.9104 979.032 23.2388C981.052 16.9409 983.333 9.83189 985.911 0.677741L986.806 -2.5H983.505H14Z" stroke="#42366D" stroke-opacity="0.1" stroke-width="5"/>
</svg>
