<svg width="320" height="352" viewBox="0 0 320 352" fill="none" xmlns="http://www.w3.org/2000/svg">
<path d="M208.194 102.395L206.303 101.729L194.992 133.82L215.351 141.024C215.351 141.024 215.297 143.36 217.242 144.026" stroke="#EED45C" stroke-opacity="0.2" stroke-width="1.70509" stroke-linecap="round" stroke-linejoin="round"/>
<path d="M217.116 143.972C219.061 144.656 220.442 142.771 220.442 142.771L240.29 149.772L251.608 117.675L249.716 117.015" stroke="#EED45C" stroke-opacity="0.2" stroke-width="1.70509" stroke-linecap="round" stroke-linejoin="round"/>
<path d="M218.256 140.28C218.256 140.28 211.322 137.158 197.795 131.874C201.434 121.548 205.654 109.576 208.452 101.645C209.329 101.951 209.767 102.131 210.559 102.455" stroke="#EED45C" stroke-opacity="0.2" stroke-width="1.70509" stroke-linecap="round" stroke-linejoin="round"/>
<path d="M218.22 140.268C218.22 140.268 225.947 142.321 239.318 146.53C242.962 136.203 247.183 124.231 249.981 116.294C249.158 116.006 248.366 115.748 247.579 115.52" stroke="#EED45C" stroke-opacity="0.2" stroke-width="1.70509" stroke-linecap="round" stroke-linejoin="round"/>
<path d="M218.503 140.868C218.503 140.868 214.21 136.497 200.683 131.22C204.322 120.893 208.542 108.922 211.34 100.991C225.023 105.794 228.529 112.434 228.529 112.434L218.503 140.868Z" stroke="#EED45C" stroke-opacity="0.2" stroke-width="1.70509" stroke-linecap="round" stroke-linejoin="round"/>
<path d="M218.503 140.868C218.503 140.868 224.116 139.991 237.487 144.2C241.131 133.886 245.352 121.878 248.161 113.965C235.421 109.474 228.541 112.434 228.541 112.434L218.503 140.868Z" stroke="#EED45C" stroke-opacity="0.2" stroke-width="1.70509" stroke-linecap="round" stroke-linejoin="round"/>
<path d="M300.569 296.878L299.002 298.12L320.208 324.723L337.084 311.263C337.084 311.263 339.036 312.548 340.651 311.263" stroke="#EED45C" stroke-opacity="0.2" stroke-width="1.70509" stroke-linecap="round" stroke-linejoin="round"/>
<path d="M338.033 308.417C338.033 308.417 331.711 312.62 320.069 321.325L300.077 296.265C300.803 295.665 301.187 295.407 301.878 294.908" stroke="#EED45C" stroke-opacity="0.2" stroke-width="1.70509" stroke-linecap="round" stroke-linejoin="round"/>
<path d="M338.657 308.525C338.657 308.525 332.653 309.846 321.03 318.522L301.043 293.462C312.391 284.414 319.859 284.954 319.859 284.954L338.657 308.525Z" stroke="#EED45C" stroke-opacity="0.2" stroke-width="1.70509" stroke-linecap="round" stroke-linejoin="round"/>
<path d="M338.657 308.525C338.657 308.525 340.891 303.296 351.548 294.188L331.555 269.128C320.994 277.533 319.859 284.954 319.859 284.954L338.657 308.525Z" stroke="#EED45C" stroke-opacity="0.2" stroke-width="1.70509" stroke-linecap="round" stroke-linejoin="round"/>
<path d="M-24.2386 262.584L-26.2499 263.46L-11.3004 297.622L10.4095 288.142C10.4095 288.142 12.1086 290.051 14.1799 289.145" stroke="#EED45C" stroke-opacity="0.2" stroke-width="1.86719" stroke-linecap="round" stroke-linejoin="round"/>
<path d="M14.0118 289.205C16.0832 288.298 15.813 285.771 15.813 285.771L36.9465 276.525L22.0029 242.357L19.9917 243.239" stroke="#EED45C" stroke-opacity="0.2" stroke-width="1.86719" stroke-linecap="round" stroke-linejoin="round"/>
<path d="M12.1687 285.392C12.1687 285.392 4.27966 288.082 -10.5018 293.984L-24.5808 261.767C-23.6502 261.359 -23.1639 261.167 -22.2873 260.849" stroke="#EED45C" stroke-opacity="0.2" stroke-width="1.86719" stroke-linecap="round" stroke-linejoin="round"/>
<path d="M12.1266 285.41C12.1266 285.41 19.8536 281.274 33.7405 274.64L19.6314 242.453C18.7549 242.831 17.9264 243.221 17.1338 243.618" stroke="#EED45C" stroke-opacity="0.2" stroke-width="1.86719" stroke-linecap="round" stroke-linejoin="round"/>
<path d="M12.8111 285.681C12.8111 285.681 6.09877 285.392 -8.67667 291.288C-13.4797 280.295 -19.0693 267.543 -22.7617 259.102C-8.19036 252.725 -0.433406 255.409 -0.433406 255.409L12.8111 285.681Z" stroke="#EED45C" stroke-opacity="0.2" stroke-width="1.86719" stroke-linecap="round" stroke-linejoin="round"/>
<path d="M12.8111 285.681C12.8111 285.681 16.6475 280.775 30.5104 274.141L16.4134 241.955C2.85069 247.892 -0.445419 255.409 -0.445419 255.409L12.8111 285.681Z" stroke="#EED45C" stroke-opacity="0.2" stroke-width="1.86719" stroke-linecap="round" stroke-linejoin="round"/>
<path d="M336.058 56.4361C332.575 72.4183 323.011 83.8976 314.696 82.0905C306.381 80.2833 302.466 65.8801 305.948 49.8739C309.431 33.8676 319.007 22.3823 327.31 24.1955C335.613 26.0086 339.54 40.4298 336.058 56.4361Z" stroke="#EED45C" stroke-opacity="0.2" stroke-width="1.80115" stroke-linecap="round" stroke-linejoin="round"/>
<path d="M325.203 68.0775C309.593 72.8806 295.015 70.1188 292.59 61.9296C290.164 53.7403 300.839 43.2276 316.425 38.4246C332.011 33.6215 346.624 36.3772 349.026 44.5665C351.427 52.7557 340.789 63.2864 325.203 68.0775Z" stroke="#EED45C" stroke-opacity="0.2" stroke-width="1.80115" stroke-linecap="round" stroke-linejoin="round"/>
<path d="M310.505 64.7094C298.498 53.6143 293.346 39.4933 299.044 33.1592C304.742 26.8252 319.097 30.6916 331.123 41.7867C343.148 52.8818 348.275 67.0028 342.584 73.3369C336.892 79.6709 322.525 75.8045 310.505 64.7094Z" stroke="#EED45C" stroke-opacity="0.2" stroke-width="1.80115" stroke-linecap="round" stroke-linejoin="round"/>
<path d="M327.904 54.6349C327.593 56.0617 326.866 57.3642 325.815 58.3778C324.764 59.3915 323.436 60.0708 321.999 60.3298C320.562 60.5888 319.08 60.4159 317.741 59.8331C316.403 59.2502 315.267 58.2835 314.477 57.0551C313.687 55.8267 313.28 54.3918 313.306 52.9318C313.331 51.4717 313.789 50.0521 314.622 48.8524C315.454 47.6526 316.624 46.7266 317.982 46.1914C319.341 45.6562 320.828 45.5357 322.255 45.8453C323.203 46.0511 324.102 46.4417 324.899 46.9949C325.696 47.548 326.377 48.2529 326.901 49.0692C327.426 49.8855 327.785 50.7973 327.957 51.7523C328.129 52.7073 328.111 53.6868 327.904 54.6349Z" fill="#EED45C" fill-opacity="0.2"/>
<path d="M79.0994 135.567C74.3444 134.366 77.2142 122.778 72.4532 121.602C67.6921 120.425 64.8283 132.036 60.0673 130.86C55.3062 129.683 58.1761 118.071 53.415 116.895C48.654 115.718 45.7841 127.329 41.0291 126.153C36.2741 124.976 39.1379 113.364 34.3768 112.188" stroke="#EED45C" stroke-opacity="0.2" stroke-width="1.70509" stroke-linecap="round" stroke-linejoin="round"/>
<path d="M31.7592 123.859C36.5202 125.06 39.3901 113.43 44.1451 114.607C48.9001 115.784 46.0363 127.389 50.7974 128.566C55.5584 129.743 58.4222 118.137 63.1833 119.314C67.9443 120.491 65.0745 132.084 69.8475 133.285C74.6206 134.486 77.4784 122.857 82.2394 124.033" stroke="#EED45C" stroke-opacity="0.2" stroke-width="1.70509" stroke-linecap="round" stroke-linejoin="round"/>
<path d="M323.089 163.076C323.089 163.924 322.838 164.753 322.367 165.458C321.896 166.163 321.226 166.712 320.443 167.037C319.66 167.361 318.798 167.446 317.966 167.281C317.135 167.115 316.371 166.707 315.771 166.107C315.172 165.508 314.764 164.744 314.598 163.913C314.433 163.081 314.518 162.219 314.842 161.436C315.167 160.652 315.716 159.983 316.421 159.512C317.126 159.041 317.955 158.789 318.803 158.789C319.939 158.789 321.03 159.241 321.834 160.045C322.638 160.849 323.089 161.939 323.089 163.076Z" stroke="#EED45C" stroke-opacity="0.2" stroke-width="1.70509" stroke-linecap="round" stroke-linejoin="round"/>
<path d="M306.699 167.957L314.516 164.925" stroke="#EED45C" stroke-opacity="0.2" stroke-width="1.70509" stroke-linecap="round" stroke-linejoin="round"/>
<path d="M323.089 163.076C323.089 163.924 322.838 164.753 322.367 165.458C321.896 166.163 321.226 166.712 320.443 167.037C319.66 167.361 318.798 167.446 317.966 167.281C317.135 167.115 316.371 166.707 315.771 166.107C315.172 165.508 314.764 164.744 314.598 163.913C314.433 163.081 314.518 162.219 314.842 161.436C315.167 160.652 315.716 159.983 316.421 159.512C317.126 159.041 317.955 158.789 318.803 158.789C319.939 158.789 321.03 159.241 321.834 160.045C322.638 160.849 323.089 161.939 323.089 163.076Z" stroke="#EED45C" stroke-opacity="0.2" stroke-width="1.70509" stroke-linecap="round" stroke-linejoin="round"/>
<path d="M306.699 167.957L314.516 164.925" stroke="#EED45C" stroke-opacity="0.2" stroke-width="1.70509" stroke-linecap="round" stroke-linejoin="round"/>
<path d="M84.5749 182.913H77.1062V210.945H84.5749V182.913Z" stroke="#EED45C" stroke-opacity="0.2" stroke-width="1.89721" stroke-linecap="round" stroke-linejoin="round"/>
<path d="M96.7207 196.151H88.3153V210.945H96.7207V196.151Z" stroke="#EED45C" stroke-opacity="0.2" stroke-width="1.89721" stroke-linecap="round" stroke-linejoin="round"/>
<path d="M107.924 189.145H100.455V210.951H107.924V189.145Z" stroke="#EED45C" stroke-opacity="0.2" stroke-width="1.89721" stroke-linecap="round" stroke-linejoin="round"/>
<path d="M70.574 210.945H121.006" stroke="#EED45C" stroke-opacity="0.2" stroke-width="1.89721" stroke-linecap="round" stroke-linejoin="round"/>
<path d="M70.574 210.945V169.674" stroke="#EED45C" stroke-opacity="0.2" stroke-width="1.89721" stroke-linecap="round" stroke-linejoin="round"/>
<path d="M272.213 202.059L266.173 204.731L266.431 207.901L262.529 209.63L261.4 192.123L266.029 190.069L278.277 202.677L274.374 204.407L272.213 202.059ZM265.873 201.531L269.997 199.7L265.284 194.62L265.873 201.531Z" fill="#EED45C" fill-opacity="0.2"/>
<path d="M104.916 64.7394C105.722 64.6954 106.529 64.8176 107.286 65.0985C108.043 65.3795 108.734 65.8131 109.317 66.3724C110.349 67.6356 110.913 69.2169 110.913 70.8483C110.913 72.4797 110.349 74.061 109.317 75.3241C108.094 76.3781 106.533 76.9578 104.919 76.9578C103.305 76.9578 101.744 76.3781 100.521 75.3241C99.4886 74.061 98.9246 72.4797 98.9246 70.8483C98.9246 69.2169 99.4886 67.6356 100.521 66.3724C101.103 65.8135 101.793 65.3802 102.549 65.0993C103.305 64.8183 104.111 64.6958 104.916 64.7394ZM104.916 67.267C104.581 67.2578 104.249 67.3395 103.956 67.5033C103.663 67.6671 103.42 67.907 103.253 68.1976C102.809 69.0066 102.601 69.9239 102.652 70.8453C102.601 71.7724 102.809 72.6956 103.253 73.511C103.425 73.7982 103.669 74.0359 103.96 74.201C104.252 74.366 104.581 74.4528 104.916 74.4528C105.251 74.4528 105.58 74.366 105.872 74.201C106.163 74.0359 106.407 73.7982 106.579 73.511C107.017 72.6934 107.225 71.7719 107.179 70.8453C107.228 69.9242 107.02 69.0077 106.579 68.1976C106.412 67.9075 106.17 67.6678 105.879 67.504C105.587 67.3402 105.256 67.2583 104.922 67.267H104.916ZM108.008 88.0223H104.67L118.689 64.7394H122.027L108.008 88.0223ZM121.787 75.8045C122.593 75.7605 123.4 75.8816 124.157 76.1604C124.915 76.4391 125.608 76.8696 126.193 77.4255C126.746 78.0235 127.173 78.7266 127.448 79.493C127.724 80.2593 127.842 81.0733 127.797 81.8863C127.841 82.7038 127.722 83.522 127.447 84.293C127.171 85.064 126.745 85.7726 126.193 86.3772C124.97 87.4387 123.404 88.0232 121.784 88.0232C120.164 88.0232 118.598 87.4387 117.374 86.3772C116.819 85.7743 116.39 85.0663 116.112 84.2951C115.835 83.5238 115.715 82.7048 115.759 81.8863C115.715 81.0734 115.836 80.26 116.113 79.4946C116.391 78.7293 116.819 78.0276 117.374 77.4315C117.96 76.8744 118.654 76.4427 119.412 76.1629C120.171 75.8832 120.979 75.7612 121.787 75.8045ZM121.787 78.3261C121.453 78.3174 121.123 78.3987 120.831 78.5613C120.54 78.724 120.298 78.9621 120.13 79.2507C119.748 80.0801 119.55 80.9823 119.55 81.8953C119.55 82.8084 119.748 83.7106 120.13 84.54C120.298 84.83 120.541 85.069 120.834 85.2318C121.126 85.3946 121.458 85.475 121.793 85.4646C122.127 85.4789 122.458 85.3999 122.749 85.2366C123.041 85.0733 123.281 84.8321 123.444 84.54C123.825 83.7106 124.023 82.8084 124.023 81.8953C124.023 80.9823 123.825 80.0801 123.444 79.2507C123.282 78.9595 123.042 78.7189 122.752 78.5557C122.462 78.3924 122.132 78.313 121.799 78.3261" fill="#EED45C" fill-opacity="0.2"/>
<path d="M2.00419 169.849H-4.28183C-4.37036 169.871 -4.46278 169.872 -4.55207 169.854C-4.64136 169.835 -4.72517 169.796 -4.79713 169.739C-4.86908 169.683 -4.92729 169.612 -4.96733 169.53C-5.00736 169.448 -5.02817 169.357 -5.02817 169.266C-5.02817 169.175 -5.00736 169.085 -4.96733 169.003C-4.92729 168.921 -4.86908 168.849 -4.79713 168.793C-4.72517 168.737 -4.64136 168.698 -4.55207 168.679C-4.46278 168.66 -4.37036 168.662 -4.28183 168.684H2.00419C2.13401 168.716 2.24923 168.791 2.33157 168.897C2.4139 169.002 2.45862 169.132 2.45862 169.266C2.45862 169.4 2.4139 169.53 2.33157 169.636C2.24923 169.741 2.13401 169.816 2.00419 169.849Z" fill="#EED45C" fill-opacity="0.2"/>
<path d="M127.088 148.493L127.905 143.54L146.739 130.475L164.192 155.637" stroke="#EED45C" stroke-opacity="0.2" stroke-width="1.89721" stroke-linecap="round" stroke-linejoin="round"/>
<path d="M127.749 148.037L128.457 143.888L146.589 131.316L163.723 156.016L163.886 159.414" stroke="#EED45C" stroke-opacity="0.2" stroke-width="1.89721" stroke-linecap="round" stroke-linejoin="round"/>
<path d="M146.819 134.787L127.087 148.476L144.882 174.128L164.614 160.439L146.819 134.787Z" stroke="#EED45C" stroke-opacity="0.2" stroke-width="1.89721" stroke-linecap="round" stroke-linejoin="round"/>
<path d="M132.594 149.057L145.91 139.817" stroke="#EED45C" stroke-opacity="0.2" stroke-width="1.89721" stroke-linecap="round" stroke-linejoin="round"/>
<path d="M135.097 149.514L144.475 143.011" stroke="#EED45C" stroke-opacity="0.2" stroke-width="1.89721" stroke-linecap="round" stroke-linejoin="round"/>
<path d="M146.282 168.792L159.599 159.552" stroke="#EED45C" stroke-opacity="0.2" stroke-width="1.89721" stroke-linecap="round" stroke-linejoin="round"/>
<path d="M149.208 145.831L136.408 154.729L142.226 163.098L155.026 154.2L149.208 145.831Z" stroke="#EED45C" stroke-opacity="0.2" stroke-width="1.89465" stroke-linecap="round" stroke-linejoin="round"/>
<path d="M315.525 253.362V250.15H313.003C312.867 249.129 312.601 248.131 312.21 247.178L314.414 245.905L312.805 243.125L310.601 244.386C309.975 243.572 309.246 242.842 308.434 242.213L309.707 240.003L306.921 238.4L305.654 240.598C304.692 240.207 303.683 239.942 302.652 239.811V237.266H299.434V239.811C298.414 239.945 297.415 240.21 296.462 240.598L295.196 238.4L292.41 240.003L293.689 242.213C292.874 242.841 292.144 243.572 291.515 244.386L289.306 243.113L287.703 245.893L289.9 247.166C289.512 248.119 289.247 249.118 289.114 250.138H286.586V253.362H289.138C289.271 254.382 289.536 255.381 289.924 256.334L287.727 257.607L289.33 260.386L291.539 259.114C292.169 259.927 292.899 260.657 293.713 261.287L292.44 263.49L295.22 265.099L296.492 262.902C297.445 263.29 298.444 263.555 299.464 263.689V266.234H302.676V263.689C303.707 263.557 304.716 263.293 305.678 262.902L306.945 265.099L309.731 263.49L308.458 261.287C309.27 260.655 310 259.925 310.631 259.114L312.835 260.386L314.444 257.601L312.246 256.334C312.622 255.379 312.876 254.38 313.003 253.362H315.525ZM293.755 251.753C293.756 250.312 294.184 248.903 294.986 247.705C295.788 246.507 296.926 245.574 298.258 245.023C299.59 244.473 301.055 244.329 302.469 244.611C303.882 244.893 305.181 245.588 306.199 246.607C307.218 247.627 307.912 248.925 308.192 250.339C308.473 251.753 308.328 253.218 307.777 254.55C307.225 255.881 306.291 257.019 305.092 257.82C303.894 258.62 302.485 259.048 301.043 259.048C300.085 259.048 299.135 258.858 298.25 258.491C297.364 258.124 296.56 257.585 295.883 256.906C295.206 256.228 294.67 255.422 294.304 254.536C293.939 253.649 293.752 252.7 293.755 251.741V251.753Z" stroke="#EED45C" stroke-opacity="0.2" stroke-width="1.70509" stroke-linecap="round" stroke-linejoin="round"/>
<path d="M189.066 198.127V188.959C189.066 188.878 189.048 188.799 189.014 188.726C188.979 188.654 188.928 188.591 188.865 188.541C188.802 188.491 188.728 188.456 188.649 188.439C188.571 188.422 188.489 188.423 188.411 188.442L180.606 190.34C180.492 190.368 180.39 190.433 180.317 190.526C180.245 190.618 180.205 190.732 180.204 190.85V198.991C180.081 198.967 179.957 198.955 179.832 198.955C179.357 198.967 178.89 199.082 178.463 199.291C177.406 199.796 176.38 200.858 176.56 201.849C176.633 202.157 176.816 202.428 177.074 202.611C177.333 202.793 177.65 202.875 177.965 202.84C178.44 202.827 178.908 202.71 179.333 202.497C180.36 202.017 181.357 201.002 181.249 200.036V193.72L187.997 192.081V197.094C187.874 197.072 187.75 197.06 187.625 197.058C187.149 197.072 186.682 197.189 186.256 197.4C185.193 197.898 184.167 198.961 184.353 199.952C184.426 200.26 184.609 200.531 184.867 200.713C185.126 200.896 185.443 200.977 185.758 200.942C186.234 200.932 186.701 200.815 187.126 200.6C188.177 200.12 189.174 199.105 189.066 198.127Z" fill="#EED45C" fill-opacity="0.2"/>
<path d="M247.837 55.5655V46.3796C247.838 46.2992 247.82 46.2198 247.785 46.1474C247.75 46.0749 247.699 46.0114 247.636 45.9616C247.573 45.9118 247.499 45.8771 247.421 45.86C247.342 45.843 247.261 45.8441 247.183 45.8633L239.378 47.7605C239.263 47.7898 239.161 47.8564 239.088 47.9499C239.016 48.0433 238.976 48.1584 238.976 48.2768V56.4361C238.853 56.4146 238.728 56.4025 238.603 56.4C238.128 56.4143 237.661 56.5311 237.234 56.7423C236.178 57.2406 235.151 58.3093 235.331 59.2999C235.405 59.607 235.589 59.8764 235.848 60.0577C236.106 60.239 236.422 60.3197 236.736 60.2845C237.211 60.271 237.678 60.1564 238.105 59.9483C239.132 59.462 240.128 58.4473 240.02 57.4807V51.1407L246.763 49.5016V54.5208C246.642 54.494 246.52 54.4799 246.396 54.4788C245.921 54.4931 245.454 54.6098 245.027 54.821C243.965 55.3193 242.938 56.388 243.124 57.3787C243.199 57.6915 243.387 57.9655 243.652 58.1474C243.917 58.3293 244.24 58.4063 244.559 58.3633C245.034 58.352 245.502 58.2373 245.928 58.0271C246.961 57.5408 247.945 56.5261 247.837 55.5655Z" fill="#EED45C" fill-opacity="0.2"/>
<path d="M218.424 176.573L214.876 178.566L212.991 175.21L211.304 176.159L213.195 179.515L209.833 181.406L210.782 183.093L214.144 181.202L216.137 184.744L217.824 183.795L215.831 180.253L219.373 178.26L218.424 176.573Z" fill="#EED45C" fill-opacity="0.2"/>
<path d="M26.74 186.659L23.1977 188.659L21.3065 185.296L19.6194 186.245L21.5106 189.607L18.1485 191.492L19.0971 193.179L22.4592 191.294L24.4525 194.837L26.1396 193.888L24.1463 190.346L27.6886 188.346L26.74 186.659Z" fill="#EED45C" fill-opacity="0.2"/>
<path d="M282.095 343.744L278.553 345.743L276.668 342.381L274.975 343.329L276.866 346.692L273.51 348.577L274.458 350.264L277.814 348.373L279.814 351.921L281.495 350.972L279.502 347.424L283.05 345.431L282.095 343.744Z" fill="#EED45C" fill-opacity="0.2"/>
<path d="M271.258 1.36287L267.716 3.35614L265.825 0L264.138 0.948606L266.029 4.30475L262.673 6.19596L263.621 7.88304L266.977 5.99183L268.971 9.5401L270.658 8.59149L268.665 5.04322L272.207 3.04995L271.258 1.36287Z" fill="#EED45C" fill-opacity="0.2"/>
<path d="M-17.9406 78.6803L-12.357 78.6923L-7.22974 96.3376L-5.08637 65.9161L31.7712 66.0002" stroke="#EED45C" stroke-opacity="0.2" stroke-width="2.83981" stroke-linecap="round" stroke-linejoin="round"/>
<path d="M312.679 106.598L309.893 107.751L307.659 104.149C307.626 104.095 307.582 104.049 307.531 104.013C307.479 103.977 307.421 103.952 307.359 103.938C307.297 103.926 307.233 103.926 307.171 103.939C307.109 103.953 307.05 103.979 306.999 104.016L306.068 104.665L301.83 100.144C301.782 100.091 301.723 100.05 301.657 100.024C301.591 99.9977 301.52 99.987 301.449 99.9928C301.378 99.9987 301.309 100.021 301.248 100.057C301.187 100.094 301.136 100.144 301.097 100.204L300.575 101.003L295.46 98.0006C295.397 97.9617 295.327 97.9387 295.253 97.9334C295.18 97.9282 295.107 97.941 295.039 97.9706C294.971 97.9995 294.91 98.0446 294.863 98.1022C294.816 98.1597 294.784 98.2279 294.769 98.3008L291.851 111.269L291.689 97.9706C291.69 97.894 291.671 97.8185 291.634 97.7512C291.597 97.684 291.544 97.6272 291.479 97.5864C291.416 97.5445 291.344 97.5188 291.268 97.5114C291.193 97.5041 291.117 97.5154 291.047 97.5443L285.679 99.7417L285.307 98.7931C285.281 98.7297 285.242 98.6725 285.192 98.6249C285.142 98.5774 285.084 98.5406 285.019 98.517C284.954 98.4962 284.886 98.4897 284.819 98.498C284.751 98.5063 284.686 98.5292 284.629 98.565L279.544 101.657L278.895 100.955C278.818 100.875 278.716 100.826 278.606 100.815C278.496 100.804 278.386 100.832 278.295 100.894L273.69 104.245C273.639 104.281 273.597 104.328 273.565 104.382C273.533 104.435 273.512 104.495 273.504 104.557L271.763 103.518L271.108 129.197L287.919 140.688L309.797 132.048L312.679 106.598ZM301.554 101.195L305.294 105.187L293.556 113.364L301.554 101.195ZM300.065 101.765L292.26 113.623L295.526 99.0933L300.065 101.765ZM290.789 98.6551L290.969 113.202L286.04 100.594L290.789 98.6551ZM284.641 99.6637L284.983 100.54L289.72 112.656L280.192 102.359L284.641 99.6637ZM274.224 105.007L278.493 101.903L290.164 114.511L274.224 105.007ZM293.592 114.523L307.131 105.067L309.022 108.111L293.592 114.523Z" fill="#EED45C" fill-opacity="0.2"/>
<path d="M55.9366 298.655L55.1922 301.273L51.3917 300.834C51.3349 300.827 51.2773 300.832 51.2226 300.849C51.1678 300.865 51.1171 300.893 51.0735 300.93C51.0291 300.966 50.9928 301.011 50.9669 301.061C50.941 301.112 50.9262 301.168 50.9234 301.224L50.8634 302.251L45.2798 302.713C45.217 302.718 45.156 302.738 45.1019 302.77C45.0477 302.802 45.0018 302.847 44.9676 302.9C44.9325 302.953 44.9094 303.013 44.9001 303.077C44.8907 303.14 44.8953 303.204 44.9136 303.266L45.1838 304.082L40.1766 306.01C40.1143 306.033 40.0584 306.071 40.0135 306.12C39.9687 306.169 39.936 306.228 39.9184 306.292C39.903 306.356 39.9026 306.423 39.9171 306.488C39.9317 306.552 39.9609 306.612 40.0025 306.664L47.5493 316.006L38.0272 308.657C37.9721 308.616 37.908 308.588 37.8401 308.577C37.7722 308.565 37.7026 308.57 37.6369 308.591C37.5712 308.612 37.5119 308.65 37.4647 308.7C37.4174 308.751 37.3837 308.812 37.3668 308.879L35.9078 313.911L35.0253 313.64C34.9661 313.624 34.9041 313.62 34.8432 313.628C34.7823 313.636 34.7237 313.657 34.6711 313.688C34.6197 313.723 34.5764 313.768 34.5443 313.821C34.5121 313.874 34.4919 313.933 34.4849 313.995L33.8245 319.326L32.96 319.392C32.8573 319.401 32.7612 319.446 32.6894 319.52C32.6177 319.594 32.5752 319.691 32.5697 319.794L32.3536 324.934C32.352 325.049 32.395 325.161 32.4737 325.246L30.7626 325.894L48.5699 340.772L66.1552 335.302L72.3211 314.961L55.9366 298.655ZM45.8862 303.506L50.8094 303.098L50.0349 316L45.8862 303.506ZM45.4479 304.881L49.4705 317.051L41.0291 306.586L45.4479 304.881ZM38.0152 309.684L48.4138 317.717L36.7244 314.115L38.0152 309.684ZM35.2714 314.601L36.088 314.847L47.3271 318.293L34.6891 319.26L35.2714 314.601ZM33.2241 324.97L33.4223 320.209L48.8941 319.008L33.2241 324.97ZM50.8334 316.6L51.752 301.723L54.97 302.095L50.8334 316.6Z" fill="#EED45C" fill-opacity="0.2"/>
<path d="M65.9991 10.1405L63.4774 11.5694L60.6436 8.64553C60.6006 8.59962 60.5485 8.56312 60.4906 8.53832C60.4327 8.51353 60.3704 8.50097 60.3074 8.50144C60.1849 8.49513 60.0646 8.53595 59.9712 8.61552L59.1727 9.32997L54.2015 5.85375C54.1455 5.812 54.0808 5.78332 54.0122 5.76981C53.9437 5.75631 53.873 5.75832 53.8053 5.7757C53.7394 5.78793 53.6774 5.81551 53.6242 5.85619C53.571 5.89687 53.5281 5.94951 53.4991 6.00985L53.1268 6.80236L47.5733 4.80308C47.5047 4.77878 47.4317 4.76942 47.3593 4.77564C47.2868 4.78185 47.2164 4.80349 47.153 4.8391C47.0931 4.87155 47.0428 4.91909 47.007 4.97702C46.9712 5.03495 46.9511 5.10125 46.9489 5.16931L46.4326 17.255L43.8689 5.3014C43.8518 5.23007 43.8178 5.1639 43.7698 5.10851C43.7217 5.05312 43.661 5.01013 43.5927 4.98319C43.5253 4.95074 43.4514 4.93388 43.3766 4.93388C43.3018 4.93388 43.2279 4.95074 43.1605 4.98319L38.2974 7.71494L37.763 6.91043C37.7247 6.8558 37.6756 6.80953 37.6189 6.77444C37.5621 6.73935 37.4988 6.71616 37.4328 6.7063C37.3666 6.69417 37.2985 6.69647 37.2332 6.71305C37.1679 6.72963 37.107 6.76009 37.0546 6.80236L32.6237 10.3206L31.8552 9.78026C31.7656 9.71806 31.6577 9.68779 31.5488 9.69432C31.4399 9.70086 31.3364 9.74381 31.2549 9.81628L27.3464 13.4726C27.3004 13.5148 27.265 13.5672 27.243 13.6256C27.2211 13.684 27.2133 13.7468 27.2203 13.8088L25.3231 13.1184L29.3216 36.3352L47.8975 44.3263L67.7822 33.4774L65.9991 10.1405ZM54.1235 6.85639L58.5123 9.92435L48.4859 18.9301L54.1235 6.85639ZM52.7666 7.57685L47.2731 19.3504L47.8735 5.80572L52.7666 7.57685ZM43.0884 6.05788L45.8922 19.1342L38.7897 8.47142L43.0884 6.05788ZM37.2647 7.79899L37.757 8.54347L44.5834 18.798L33.3922 10.8609L37.2647 7.79899ZM28.0188 14.073L31.6211 10.6808L45.3579 20.4131L28.0188 14.073ZM48.726 19.9327L60.2834 9.54011L62.6849 12.0197L48.726 19.9327Z" fill="#EED45C" fill-opacity="0.2"/>
</svg>
