<svg width="40" height="40" viewBox="0 0 40 40" fill="none" xmlns="http://www.w3.org/2000/svg">
<rect width="40" height="40" rx="5" fill="#42366D"/>
<path d="M20.4763 8C18.0519 8.00461 15.6811 8.71414 13.6528 10.0422C11.6245 11.3702 10.0261 13.2594 9.05243 15.4797C8.07874 17.7 7.77173 20.1555 8.16879 22.5472C8.56585 24.9389 9.64985 27.1635 11.2888 28.95C12.4593 30.2188 13.8799 31.2314 15.4612 31.924C17.0424 32.6166 18.75 32.9742 20.4763 32.9742C22.2025 32.9742 23.9101 32.6166 25.4913 31.924C27.0726 31.2314 28.4932 30.2188 29.6638 28.95C31.3027 27.1635 32.3867 24.9389 32.7837 22.5472C33.1808 20.1555 32.8738 17.7 31.9001 15.4797C30.9264 13.2594 29.328 11.3702 27.2997 10.0422C25.2714 8.71414 22.9007 8.00461 20.4763 8ZM20.4763 30.5C17.8868 30.4961 15.3999 29.4878 13.5388 27.6875C14.1038 26.3119 15.065 25.1354 16.3003 24.3074C17.5356 23.4793 18.9891 23.0373 20.4763 23.0373C21.9634 23.0373 23.4169 23.4793 24.6522 24.3074C25.8875 25.1354 26.8487 26.3119 27.4138 27.6875C25.5526 29.4878 23.0657 30.4961 20.4763 30.5ZM17.9763 18C17.9763 17.5055 18.1229 17.0222 18.3976 16.6111C18.6723 16.2 19.0627 15.8795 19.5195 15.6903C19.9764 15.5011 20.479 15.4516 20.964 15.548C21.4489 15.6445 21.8944 15.8826 22.244 16.2322C22.5937 16.5819 22.8318 17.0273 22.9282 17.5123C23.0247 17.9972 22.9752 18.4999 22.786 18.9567C22.5967 19.4135 22.2763 19.804 21.8652 20.0787C21.4541 20.3534 20.9707 20.5 20.4763 20.5C19.8132 20.5 19.1773 20.2366 18.7085 19.7678C18.2396 19.2989 17.9763 18.663 17.9763 18ZM29.1138 25.5C27.9969 23.5897 26.278 22.1038 24.2263 21.275C24.8627 20.5533 25.2774 19.6633 25.4206 18.7118C25.5638 17.7603 25.4293 16.7876 25.0334 15.9106C24.6375 15.0336 23.997 14.2894 23.1886 13.7675C22.3803 13.2455 21.4385 12.9678 20.4763 12.9678C19.514 12.9678 18.5722 13.2455 17.7639 13.7675C16.9555 14.2894 16.315 15.0336 15.9191 15.9106C15.5232 16.7876 15.3887 17.7603 15.5319 18.7118C15.6751 19.6633 16.0898 20.5533 16.7263 21.275C14.6745 22.1038 12.9556 23.5897 11.8388 25.5C10.9487 23.9839 10.4784 22.2581 10.4763 20.5C10.4763 17.8478 11.5298 15.3043 13.4052 13.4289C15.2806 11.5536 17.8241 10.5 20.4763 10.5C23.1284 10.5 25.672 11.5536 27.5473 13.4289C29.4227 15.3043 30.4763 17.8478 30.4763 20.5C30.4741 22.2581 30.0038 23.9839 29.1138 25.5Z" fill="white"/>
</svg>
