<svg width="16" height="16" viewBox="0 0 16 16" fill="none" xmlns="http://www.w3.org/2000/svg">
<path fill-rule="evenodd" clip-rule="evenodd" d="M12.0002 1.99996C11.2638 1.99996 10.6668 2.59691 10.6668 3.33329C10.6668 4.06967 11.2638 4.66663 12.0002 4.66663C12.7365 4.66663 13.3335 4.06967 13.3335 3.33329C13.3335 2.59691 12.7365 1.99996 12.0002 1.99996ZM9.3335 3.33329C9.3335 1.86053 10.5274 0.666626 12.0002 0.666626C13.4729 0.666626 14.6668 1.86053 14.6668 3.33329C14.6668 4.80605 13.4729 5.99996 12.0002 5.99996C10.5274 5.99996 9.3335 4.80605 9.3335 3.33329Z" fill="#42366D"/>
<path fill-rule="evenodd" clip-rule="evenodd" d="M4.00016 6.66663C3.26378 6.66663 2.66683 7.26358 2.66683 7.99996C2.66683 8.73634 3.26378 9.33329 4.00016 9.33329C4.73654 9.33329 5.3335 8.73634 5.3335 7.99996C5.3335 7.26358 4.73654 6.66663 4.00016 6.66663ZM1.3335 7.99996C1.3335 6.5272 2.5274 5.33329 4.00016 5.33329C5.47292 5.33329 6.66683 6.5272 6.66683 7.99996C6.66683 9.47272 5.47292 10.6666 4.00016 10.6666C2.5274 10.6666 1.3335 9.47272 1.3335 7.99996Z" fill="#42366D"/>
<path fill-rule="evenodd" clip-rule="evenodd" d="M12.0002 11.3333C11.2638 11.3333 10.6668 11.9302 10.6668 12.6666C10.6668 13.403 11.2638 14 12.0002 14C12.7365 14 13.3335 13.403 13.3335 12.6666C13.3335 11.9302 12.7365 11.3333 12.0002 11.3333ZM9.3335 12.6666C9.3335 11.1939 10.5274 9.99996 12.0002 9.99996C13.4729 9.99996 14.6668 11.1939 14.6668 12.6666C14.6668 14.1394 13.4729 15.3333 12.0002 15.3333C10.5274 15.3333 9.3335 14.1394 9.3335 12.6666Z" fill="#42366D"/>
<path fill-rule="evenodd" clip-rule="evenodd" d="M5.42184 8.90698C5.60721 8.58886 6.01538 8.48125 6.3335 8.66663L10.3335 11C10.6516 11.1853 10.7592 11.5935 10.5739 11.9116C10.3885 12.2297 9.98031 12.3373 9.66219 12.152L5.66219 9.81864C5.34407 9.63326 5.23646 9.2251 5.42184 8.90698Z" fill="#42366D"/>
<path fill-rule="evenodd" clip-rule="evenodd" d="M10.5733 4.08815C10.7588 4.40615 10.6515 4.81438 10.3335 4.99996L6.33887 7.48488C6.02087 7.67045 5.61264 7.5631 5.42706 7.2451C5.24148 6.9271 5.34883 6.51887 5.66683 6.33329L9.66146 3.84838C9.97946 3.6628 10.3877 3.77015 10.5733 4.08815Z" fill="#42366D"/>
</svg>
