<svg width="60" height="60" viewBox="0 0 60 60" fill="none" xmlns="http://www.w3.org/2000/svg">
<path d="M53.25 25.2001C52.5475 24.3567 51.6685 23.6778 50.675 23.2113C49.6814 22.7448 48.5976 22.502 47.5 22.5001H36.1L37.5 18.9251C38.0823 17.3598 38.2763 15.6766 38.0652 14.0199C37.8541 12.3632 37.2442 10.7824 36.288 9.41318C35.3317 8.04394 34.0576 6.9271 32.5749 6.15847C31.0921 5.38984 29.4451 4.99235 27.775 5.00011C27.2941 5.00111 26.8237 5.1408 26.4202 5.40242C26.0167 5.66404 25.6972 6.03649 25.5 6.47511L18.375 22.5001H12.5C10.5109 22.5001 8.60322 23.2903 7.1967 24.6968C5.79018 26.1033 5 28.011 5 30.0001V47.5001C5 49.4892 5.79018 51.3969 7.1967 52.8034C8.60322 54.2099 10.5109 55.0001 12.5 55.0001H44.325C46.0795 54.9995 47.7783 54.3838 49.1258 53.2602C50.4733 52.1365 51.3842 50.576 51.7 48.8501L54.875 31.3501C55.0714 30.2686 55.0276 29.1571 54.7468 28.0943C54.466 27.0315 53.955 26.0435 53.25 25.2001ZM17.5 50.0001H12.5C11.837 50.0001 11.2011 49.7367 10.7322 49.2679C10.2634 48.799 10 48.1632 10 47.5001V30.0001C10 29.3371 10.2634 28.7012 10.7322 28.2323C11.2011 27.7635 11.837 27.5001 12.5 27.5001H17.5V50.0001ZM50 30.4501L46.825 47.9501C46.7185 48.5325 46.4088 49.0582 45.951 49.4336C45.4932 49.809 44.917 50.0098 44.325 50.0001H22.5V25.5251L29.3 10.2251C30 10.4292 30.65 10.7761 31.2091 11.2441C31.7683 11.712 32.2243 12.2908 32.5485 12.9438C32.8727 13.5969 33.058 14.3101 33.0926 15.0384C33.1273 15.7666 33.0107 16.4942 32.75 17.1751L31.425 20.7501C31.1427 21.5058 31.0474 22.3185 31.1472 23.1189C31.247 23.9194 31.539 24.6838 31.9983 25.347C32.4576 26.0101 33.0705 26.5523 33.7848 26.9272C34.499 27.3021 35.2933 27.4987 36.1 27.5001H47.5C47.8673 27.4995 48.2302 27.5798 48.5629 27.7354C48.8956 27.891 49.1899 28.1179 49.425 28.4001C49.6658 28.6784 49.8422 29.0065 49.9416 29.3608C50.041 29.7152 50.061 30.0872 50 30.4501Z" fill="#3908E4"/>
</svg>
