<svg width="50" height="50" viewBox="0 0 50 50" fill="none" xmlns="http://www.w3.org/2000/svg">
<circle cx="25" cy="25" r="24.5" stroke="#3908E4"/>
<g clip-path="url(#clip0)">
<path d="M20.5009 34.7549C29.5581 34.7549 34.5109 27.2514 34.5109 20.7449C34.5109 20.5318 34.5065 20.3196 34.497 20.1085C35.4583 19.4134 36.294 18.546 36.9532 17.5587C36.071 17.9509 35.1214 18.2148 34.1255 18.334C35.1421 17.7242 35.9227 16.76 36.2907 15.6105C35.3393 16.1744 34.2857 16.5842 33.164 16.8056C32.2655 15.8485 30.9861 15.2499 29.5696 15.2499C26.8505 15.2499 24.6453 17.4551 24.6453 20.1733C24.6453 20.5598 24.6886 20.9356 24.773 21.2961C20.6806 21.0901 17.0516 19.1309 14.6232 16.1514C14.2004 16.879 13.9565 17.7244 13.9565 18.6264C13.9565 20.3346 14.8259 21.8428 16.1478 22.7251C15.3399 22.7001 14.5811 22.4784 13.9177 22.1093C13.917 22.13 13.917 22.1501 13.917 22.1721C13.917 24.5568 15.6142 26.5479 17.8675 26.9991C17.4537 27.1117 17.0183 27.1723 16.5691 27.1723C16.2523 27.1723 15.9436 27.1412 15.6435 27.0835C16.2705 29.04 18.0883 30.4637 20.2435 30.5036C18.5582 31.8245 16.4351 32.6113 14.1277 32.6113C13.7308 32.6113 13.3386 32.5886 12.9531 32.5432C15.1323 33.9399 17.7201 34.7551 20.5011 34.7551" fill="#1DA1F2"/>
</g>
<defs>
<clipPath id="clip0">
<rect width="24" height="24" fill="white" transform="translate(13 13)"/>
</clipPath>
</defs>
</svg>
