<svg width="16" height="16" viewBox="0 0 16 16" fill="none" xmlns="http://www.w3.org/2000/svg">
<path d="M8.00002 8.66666C7.82321 8.66666 7.65364 8.7369 7.52862 8.86192C7.40359 8.98695 7.33335 9.15652 7.33335 9.33333V11.3333C7.33335 11.5101 7.40359 11.6797 7.52862 11.8047C7.65364 11.9298 7.82321 12 8.00002 12C8.17683 12 8.3464 11.9298 8.47142 11.8047C8.59645 11.6797 8.66669 11.5101 8.66669 11.3333V9.33333C8.66669 9.15652 8.59645 8.98695 8.47142 8.86192C8.3464 8.7369 8.17683 8.66666 8.00002 8.66666ZM11.3334 6V4.66666C11.3334 3.78261 10.9822 2.93476 10.357 2.30964C9.73192 1.68452 8.88408 1.33333 8.00002 1.33333C7.11596 1.33333 6.26812 1.68452 5.643 2.30964C5.01788 2.93476 4.66669 3.78261 4.66669 4.66666V6C4.13625 6 3.62755 6.21071 3.25247 6.58578C2.8774 6.96085 2.66669 7.46956 2.66669 8V12.6667C2.66669 13.1971 2.8774 13.7058 3.25247 14.0809C3.62755 14.4559 4.13625 14.6667 4.66669 14.6667H11.3334C11.8638 14.6667 12.3725 14.4559 12.7476 14.0809C13.1226 13.7058 13.3334 13.1971 13.3334 12.6667V8C13.3334 7.46956 13.1226 6.96085 12.7476 6.58578C12.3725 6.21071 11.8638 6 11.3334 6ZM6.00002 4.66666C6.00002 4.13623 6.21073 3.62752 6.58581 3.25245C6.96088 2.87738 7.46959 2.66666 8.00002 2.66666C8.53045 2.66666 9.03916 2.87738 9.41423 3.25245C9.78931 3.62752 10 4.13623 10 4.66666V6H6.00002V4.66666ZM12 12.6667C12 12.8435 11.9298 13.013 11.8048 13.1381C11.6797 13.2631 11.5102 13.3333 11.3334 13.3333H4.66669C4.48988 13.3333 4.32031 13.2631 4.19528 13.1381C4.07026 13.013 4.00002 12.8435 4.00002 12.6667V8C4.00002 7.82318 4.07026 7.65361 4.19528 7.52859C4.32031 7.40357 4.48988 7.33333 4.66669 7.33333H11.3334C11.5102 7.33333 11.6797 7.40357 11.8048 7.52859C11.9298 7.65361 12 7.82318 12 8V12.6667Z" fill="#42366D"/>
</svg>
