<svg width="17" height="17" viewBox="0 0 17 17" fill="none" xmlns="http://www.w3.org/2000/svg">
<g clip-path="url(#clip0_88:112)">
<path d="M2.125 14.1667L2.125 2.83334C2.125 2.45761 2.27425 2.09728 2.53993 1.8316C2.80561 1.56592 3.16594 1.41667 3.54167 1.41667L7.79167 1.41667C9.67028 1.41667 11.472 2.16295 12.8003 3.49133C14.1287 4.81971 14.875 6.62138 14.875 8.5C14.875 9.4302 14.6918 10.3513 14.3358 11.2107C13.9798 12.0701 13.4581 12.8509 12.8003 13.5087C11.472 14.8371 9.67028 15.5833 7.79167 15.5833L3.54167 15.5833C3.16594 15.5833 2.80561 15.4341 2.53993 15.1684C2.27426 14.9027 2.125 14.5424 2.125 14.1667V14.1667Z" stroke="white" stroke-width="1.41667" stroke-linecap="round" stroke-linejoin="round"/>
<path d="M7.08333 11.3333L9.91667 8.5L7.08333 5.66667" stroke="white" stroke-width="1.41667" stroke-linecap="round" stroke-linejoin="round"/>
</g>
<defs>
<clipPath id="clip0_88:112">
<rect width="17" height="17" fill="white" transform="translate(0 17) rotate(-90)"/>
</clipPath>
</defs>
</svg>
