<svg width="90" height="90" viewBox="0 0 90 90" fill="none" xmlns="http://www.w3.org/2000/svg">
<circle cx="45" cy="45" r="45" fill="#3908E4"/>
<path d="M21.5343 36.5V54H18.2843V39.225H14.5843V36.5H21.5343ZM32.3058 54.25C30.9058 54.25 29.6558 53.9 28.5558 53.2C27.4558 52.4833 26.5891 51.45 25.9558 50.1C25.3224 48.7333 25.0058 47.1167 25.0058 45.25C25.0058 43.3833 25.3224 41.775 25.9558 40.425C26.5891 39.0583 27.4558 38.025 28.5558 37.325C29.6558 36.6083 30.9058 36.25 32.3058 36.25C33.7058 36.25 34.9558 36.6083 36.0558 37.325C37.1724 38.025 38.0474 39.0583 38.6808 40.425C39.3141 41.775 39.6308 43.3833 39.6308 45.25C39.6308 47.1167 39.3141 48.7333 38.6808 50.1C38.0474 51.45 37.1724 52.4833 36.0558 53.2C34.9558 53.9 33.7058 54.25 32.3058 54.25ZM32.3058 51.425C33.5558 51.425 34.5391 50.9083 35.2558 49.875C35.9891 48.8417 36.3558 47.3 36.3558 45.25C36.3558 43.2 35.9891 41.6583 35.2558 40.625C34.5391 39.5917 33.5558 39.075 32.3058 39.075C31.0724 39.075 30.0891 39.5917 29.3558 40.625C28.6391 41.6583 28.2808 43.2 28.2808 45.25C28.2808 47.3 28.6391 48.8417 29.3558 49.875C30.0891 50.9083 31.0724 51.425 32.3058 51.425ZM47.7388 32.95H50.5388L42.2888 56.5H39.4888L47.7388 32.95ZM57.4229 36.5V54H54.1729V39.225H50.4729V36.5H57.4229ZM68.1944 54.25C66.7944 54.25 65.5444 53.9 64.4444 53.2C63.3444 52.4833 62.4778 51.45 61.8444 50.1C61.2111 48.7333 60.8944 47.1167 60.8944 45.25C60.8944 43.3833 61.2111 41.775 61.8444 40.425C62.4778 39.0583 63.3444 38.025 64.4444 37.325C65.5444 36.6083 66.7944 36.25 68.1944 36.25C69.5944 36.25 70.8444 36.6083 71.9444 37.325C73.0611 38.025 73.9361 39.0583 74.5694 40.425C75.2028 41.775 75.5194 43.3833 75.5194 45.25C75.5194 47.1167 75.2028 48.7333 74.5694 50.1C73.9361 51.45 73.0611 52.4833 71.9444 53.2C70.8444 53.9 69.5944 54.25 68.1944 54.25ZM68.1944 51.425C69.4444 51.425 70.4278 50.9083 71.1444 49.875C71.8778 48.8417 72.2444 47.3 72.2444 45.25C72.2444 43.2 71.8778 41.6583 71.1444 40.625C70.4278 39.5917 69.4444 39.075 68.1944 39.075C66.9611 39.075 65.9778 39.5917 65.2444 40.625C64.5278 41.6583 64.1694 43.2 64.1694 45.25C64.1694 47.3 64.5278 48.8417 65.2444 49.875C65.9778 50.9083 66.9611 51.425 68.1944 51.425Z" fill="white"/>
</svg>
